# Blender 4.1.1
# www.blender.org
mtllib cube.mtl
o Cube
v 100.000000 100.000000 -100.000000
v 100.000000 -100.000000 -100.000000
v 100.000000 100.000000 100.000000
v 100.000000 -100.000000 100.000000
v -100.000000 100.000000 -100.000000
v -100.000000 -100.000000 -100.000000
v -100.000000 100.000000 100.000000
v -100.000000 -100.000000 100.000000
vn -0.0000 -1.0000 -0.0000
vn -0.0000 -0.0000 -1.0000
vn 1.0000 -0.0000 -0.0000
vn -0.0000 1.0000 -0.0000
vn -1.0000 -0.0000 -0.0000
vn -0.0000 -0.0000 1.0000
vt 0.006749 0.990647
vt 0.975022 0.022374
vt 0.006749 0.022374
vt -0.003358 1.000217
vt 0.997075 -0.000217
vt -0.003358 -0.000216
vt 0.990013 0.993268
vt 0.004779 0.008034
vt 0.004779 0.993268
vt 0.007038 0.007689
vt 0.992962 0.993613
vt 0.992962 0.007689
vt 0.002117 0.997883
vt 0.997882 0.002117
vt 0.002117 0.002118
vt 1.004759 0.999550
vt 0.005658 0.000449
vt 0.005658 0.999550
vt 0.975022 0.990647
vt 0.997075 1.000216
vt 0.990013 0.008034
vt 0.007038 0.993613
vt 0.997882 0.997882
vt 1.004759 0.000449
s 0
usemtl Material
f 3/1/1 5/2/1 1/3/1
f 8/4/2 3/5/2 4/6/2
f 6/7/3 7/8/3 8/9/3
f 8/10/4 2/11/4 6/12/4
f 4/13/5 1/14/5 2/15/5
f 2/16/6 5/17/6 6/18/6
f 3/1/1 7/19/1 5/2/1
f 8/4/2 7/20/2 3/5/2
f 6/7/3 5/21/3 7/8/3
f 8/10/4 4/22/4 2/11/4
f 4/13/5 3/23/5 1/14/5
f 2/16/6 1/24/6 5/17/6
