# Blender 4.4.1
# www.blender.org
mtllib wvb.mtl
o torus.003
v 1.021425 1.740000 1.106438
v 1.021425 1.740000 1.066655
v 0.749567 1.740000 1.106438
v 0.749567 1.740000 1.066655
v 1.021425 1.515000 1.106438
v 1.021425 1.515000 1.066655
v 0.749567 1.515000 1.106438
v 0.749567 1.515000 1.066655
v 0.715584 1.543125 1.106438
v 0.715584 1.711875 1.106438
v 0.715584 1.543125 1.066655
v 0.715584 1.711875 1.066655
v 1.055407 1.543125 1.106438
v 1.055407 1.711875 1.106438
v 1.055407 1.543125 1.066655
v 1.055407 1.711875 1.066655
v 1.021425 1.543125 1.111994
v 1.021425 1.711875 1.111994
v 0.749567 1.543125 1.111994
v 0.749567 1.711875 1.111994
vn 1.0000 -0.0000 -0.0000
vn -1.0000 -0.0000 -0.0000
vn -0.0000 1.0000 -0.0000
vn -0.0000 -1.0000 -0.0000
vn -0.0000 -0.0000 1.0000
vn 0.6376 0.7704 -0.0000
vn -0.6376 0.7704 -0.0000
vn -0.0000 0.1938 0.9810
vn 0.6376 -0.7704 -0.0000
vn -0.6376 -0.7704 -0.0000
vn -0.0000 -0.1938 0.9810
vn 0.1614 -0.0000 0.9869
vn -0.1614 -0.0000 0.9869
vn 0.1584 -0.1914 0.9687
vn -0.1584 -0.1914 0.9687
vn 0.1584 0.1914 0.9687
vn -0.1584 0.1914 0.9687
vt 0.850745 0.675578
vt 0.982111 0.272500
vt 0.943284 0.741522
vt 0.153654 0.670580
vt 0.033359 0.272039
vt 0.145261 0.334632
vt 0.828759 0.832983
vt 0.217620 0.734360
vt 0.784986 0.735149
vt 0.853125 0.162647
vt 0.212225 0.263504
vt 0.158691 0.167340
vt 0.781761 0.674602
vt 0.220419 0.331434
vt 0.790477 0.333712
vt 0.062811 0.731644
vt 0.222994 0.670976
vt 0.798187 0.268899
vt 0.865267 0.337677
vt 0.171574 0.822166
s 1
usemtl Material.001
f 14/1/1 15/2/1 16/3/1
f 10/4/2 11/5/2 9/6/2
f 2/7/3 3/8/3 1/9/3
f 6/10/4 7/11/4 8/12/4
f 18/13/5 19/14/5 17/15/5
f 1/9/6 16/3/6 2/7/6
f 3/8/7 12/16/7 10/4/7
f 1/9/8 20/17/8 18/13/8
f 5/18/9 15/2/9 13/19/9
f 7/11/10 11/5/10 8/12/10
f 5/18/11 19/14/11 7/11/11
f 17/15/12 14/1/12 18/13/12
f 19/14/13 10/4/13 9/6/13
f 5/18/14 13/19/14 17/15/14
f 7/11/15 19/14/15 9/6/15
f 1/9/16 18/13/16 14/1/16
f 3/8/17 10/4/17 20/17/17
f 14/1/1 13/19/1 15/2/1
f 10/4/2 12/16/2 11/5/2
f 2/7/3 4/20/3 3/8/3
f 6/10/4 5/18/4 7/11/4
f 18/13/5 20/17/5 19/14/5
f 1/9/6 14/1/6 16/3/6
f 3/8/7 4/20/7 12/16/7
f 1/9/8 3/8/8 20/17/8
f 5/18/9 6/10/9 15/2/9
f 7/11/10 9/6/10 11/5/10
f 5/18/11 17/15/11 19/14/11
f 17/15/12 13/19/12 14/1/12
f 19/14/13 20/17/13 10/4/13
