# Blender 4.4.1
# www.blender.org
mtllib wvr.mtl
o torus.001
v 0.004016 0.001380 0.103506
v 0.143058 -0.081288 -0.008593
v 0.115250 -0.064754 0.103506
v 0.165764 -0.000692 -0.008593
v 0.133414 -0.000277 0.103506
v 0.145130 0.080460 -0.008593
v 0.116907 0.064644 0.103506
v 0.086684 0.140423 -0.008593
v 0.070150 0.112615 0.103506
v 0.006088 0.163129 -0.008593
v 0.005673 0.130779 0.103506
v -0.075064 0.142495 -0.008593
v -0.059248 0.114272 0.103506
v -0.135027 0.084049 -0.008593
v -0.107219 0.067515 0.103506
v -0.157733 0.003453 -0.008593
v -0.125383 0.003038 0.103506
v -0.137099 -0.077699 -0.008593
v -0.108876 -0.061883 0.103506
v -0.078653 -0.137662 -0.008593
v -0.062119 -0.109854 0.103506
v 0.001944 -0.160368 -0.008593
v 0.002358 -0.128018 0.103506
v 0.083095 -0.139734 -0.008593
v 0.067279 -0.111511 0.103506
vn 0.9272 -0.2612 0.2685
vn -0.0000 -0.0000 1.0000
vn 0.9336 0.2374 0.2685
vn 0.6898 0.6724 0.2685
vn 0.2612 0.9272 0.2685
vn -0.2374 0.9336 0.2685
vn -0.6724 0.6898 0.2685
vn -0.9272 0.2612 0.2685
vn -0.9336 -0.2374 0.2685
vn -0.6898 -0.6724 0.2685
vn -0.2612 -0.9272 0.2685
vn 0.2374 -0.9336 0.2685
vn 0.6724 -0.6898 0.2685
vt 0.773263 -0.000000
vt 0.980481 0.161042
vt 0.748865 0.144372
vt 0.431045 0.431048
vt 0.315547 0.497729
vt 0.248866 0.248865
vt 0.000000 0.808810
vt 0.251135 0.907637
vt 0.024398 0.953184
vt 0.182181 0.497729
vt -0.000000 0.642101
vt 0.231617 0.792139
vt 0.066681 0.431045
vt 0.251135 0.543274
vt 0.231616 0.658771
vt 0.000000 0.315547
vt 0.522128 0.910910
vt 0.729346 0.749866
vt 0.748865 0.865364
vt 0.000000 0.182181
vt 0.497729 0.599828
vt 0.497729 0.766537
vt 0.066684 0.066681
vt 0.748865 0.501001
vt 0.729346 0.616498
vt 0.182183 -0.000000
vt 0.497729 0.311083
vt 0.748865 0.409909
vt 0.522128 0.455456
vt 0.315548 -0.000000
vt 0.497729 0.144374
vt 0.729346 0.294412
vt 0.431048 0.066684
vt 0.522128 0.000000
vt 0.729346 0.161043
vt 0.497729 0.182183
vt 0.773263 0.455453
vt 0.980481 0.294410
vt 1.000000 0.409908
vt 0.497729 0.315548
vt 0.748865 0.311081
vt 1.000000 0.045545
vt 0.024398 0.497729
vt 0.522127 0.455456
vt 0.748865 0.045546
s 1
usemtl Material.001
f 4/1/1 3/2/1 2/3/1
f 3/4/2 5/5/2 1/6/2
f 6/7/3 5/8/3 4/9/3
f 5/5/2 7/10/2 1/6/2
f 8/11/4 7/12/4 6/7/4
f 7/10/2 9/13/2 1/6/2
f 8/11/5 11/14/5 9/15/5
f 9/13/2 11/16/2 1/6/2
f 10/17/6 13/18/6 11/19/6
f 11/16/2 13/20/2 1/6/2
f 14/21/7 13/18/7 12/22/7
f 13/20/2 15/23/2 1/6/2
f 14/21/8 17/24/8 15/25/8
f 15/23/2 17/26/2 1/6/2
f 18/27/9 17/28/9 16/29/9
f 17/26/2 19/30/2 1/6/2
f 20/31/10 19/32/10 18/27/10
f 19/30/2 21/33/2 1/6/2
f 22/34/11 21/35/11 20/31/11
f 21/33/2 23/36/2 1/6/2
f 22/37/12 25/38/12 23/39/12
f 23/36/2 25/40/2 1/6/2
f 2/3/13 25/38/13 24/41/13
f 25/40/2 3/4/2 1/6/2
f 4/1/1 5/42/1 3/2/1
f 6/7/3 7/12/3 5/8/3
f 8/11/4 9/15/4 7/12/4
f 8/11/5 10/43/5 11/14/5
f 10/17/6 12/22/6 13/18/6
f 14/21/7 15/25/7 13/18/7
f 14/21/8 16/44/8 17/24/8
f 18/27/9 19/32/9 17/28/9
f 20/31/10 21/35/10 19/32/10
f 22/34/11 23/45/11 21/35/11
f 22/37/12 24/41/12 25/38/12
f 2/3/13 3/2/13 25/38/13
