# Blender 4.4.1
# www.blender.org
mtllib dish.mtl
o Cube
v -0.630020 -0.090000 0.630000
v -0.804243 0.090000 0.804243
v -0.630020 -0.090000 -0.630000
v -0.804243 0.090000 -0.804243
v 0.629980 -0.090000 0.630000
v 0.804243 0.090000 0.804243
v 0.629980 -0.090000 -0.630000
v 0.804243 0.090000 -0.804243
v -0.819020 -0.090000 0.000000
v -1.099615 0.090000 0.000000
v 0.818980 -0.090000 0.000000
v 1.099615 0.090000 0.000000
v -0.000020 -0.090000 -0.819000
v 0.000000 0.090000 -1.099615
v -0.000020 -0.090000 0.819000
v 0.000000 0.090000 1.099615
v 0.000000 0.090000 0.000000
v -0.000020 -0.090000 0.000000
v 0.499669 0.090000 -1.000000
v 0.349748 -0.090000 0.700000
v 0.499669 0.090000 0.000000
v 0.349748 -0.090000 -0.700000
v 0.499669 0.090000 1.000000
v 0.349748 -0.090000 0.000000
v -0.350020 -0.090000 -0.700000
v -0.500000 0.090000 1.000000
v -0.350020 -0.090000 0.000000
v -0.500000 0.090000 -1.000000
v -0.350020 -0.090000 0.700000
v -0.500000 0.090000 0.000000
v -0.700020 -0.090000 0.350000
v 1.000000 0.090000 0.500000
v -1.000000 0.090000 0.500000
v 0.699980 -0.090000 0.350000
v 0.000000 0.090000 0.650000
v -0.000020 -0.090000 0.350000
v 0.499669 0.090000 0.500000
v 0.349748 -0.090000 0.350000
v -0.350020 -0.090000 0.350000
v -0.500000 0.090000 0.500000
v -1.000000 0.090000 -0.500000
v 0.699980 -0.090000 -0.350000
v -0.700020 -0.090000 -0.350000
v 1.000000 0.090000 -0.500000
v -0.000020 -0.090000 -0.350000
v 0.000000 0.090000 -0.650000
v 0.499669 0.090000 -0.500000
v 0.349748 -0.090000 -0.350000
v -0.350020 -0.090000 -0.350000
v -0.500000 0.090000 -0.500000
vn -0.4674 -0.8763 -0.1168
vn 0.1168 -0.8763 -0.4674
vn 0.4673 -0.8763 0.1168
vn -0.1168 -0.8763 0.4674
vn -0.0000 -1.0000 -0.0000
vn -0.0000 1.0000 -0.0000
vn 0.4509 -0.8793 -0.1533
vn -0.4509 -0.8793 0.1533
vn 0.1534 -0.8793 0.4509
vn -0.1533 -0.8793 -0.4509
vn 0.1168 -0.8763 0.4674
vn 0.1534 -0.8793 -0.4509
vn -0.1168 -0.8763 -0.4674
vn -0.1533 -0.8793 0.4509
vn -0.4674 -0.8763 0.1168
vn 0.4509 -0.8793 0.1533
vn 0.4673 -0.8763 -0.1168
vn -0.4509 -0.8793 -0.1533
vn -0.5035 -0.8010 -0.3240
vn 0.3237 -0.8010 -0.5037
vn 0.5035 -0.8010 0.3239
vn -0.3240 -0.8010 0.5035
vn 0.5368 -0.8369 -0.1069
vn -0.5368 -0.8369 0.1070
vn 0.1070 -0.8369 0.5368
vn -0.1070 -0.8369 -0.5368
vn 0.3237 -0.8010 0.5037
vn 0.1070 -0.8369 -0.5368
vn -0.3240 -0.8010 -0.5035
vn -0.1070 -0.8369 0.5368
vn -0.5035 -0.8010 0.3240
vn 0.5368 -0.8369 0.1069
vn 0.5035 -0.8010 -0.3239
vn -0.5368 -0.8369 -0.1070
vt 0.625000 0.187500
vt 0.375000 0.250000
vt 0.375000 0.187500
vt 0.625000 0.437459
vt 0.375000 0.500000
vt 0.375000 0.437459
vt 0.625000 0.687500
vt 0.375000 0.750000
vt 0.375000 0.687500
vt 0.625000 0.937500
vt 0.375000 1.000000
vt 0.375000 0.937500
vt 0.312459 0.687500
vt 0.312459 0.750000
vt 0.812500 0.687500
vt 0.875000 0.750000
vt 0.812500 0.750000
vt 0.875000 0.562500
vt 0.812500 0.625000
vt 0.812500 0.562500
vt 0.375000 0.562500
vt 0.312459 0.625000
vt 0.312459 0.562500
vt 0.625000 0.562500
vt 0.375000 0.625000
vt 0.625000 0.062500
vt 0.375000 0.125000
vt 0.375000 0.062500
vt 0.250000 0.562500
vt 0.187500 0.625000
vt 0.187500 0.562500
vt 0.687541 0.562500
vt 0.750000 0.625000
vt 0.687541 0.625000
vt 0.750000 0.687500
vt 0.687541 0.750000
vt 0.687541 0.687500
vt 0.250000 0.687500
vt 0.187500 0.750000
vt 0.187500 0.687500
vt 0.625000 0.812541
vt 0.375000 0.875000
vt 0.375000 0.812541
vt 0.625000 0.312500
vt 0.375000 0.375000
vt 0.375000 0.312500
vt 0.625000 0.750000
vt 0.625000 0.625000
vt 0.250000 0.625000
vt 0.250000 0.750000
vt 0.125000 0.750000
vt 0.125000 0.687500
vt 0.125000 0.562500
vt 0.125000 0.625000
vt 0.750000 0.562500
vt 0.750000 0.750000
vt 0.375000 0.000000
vt 0.875000 0.687500
vt 0.812500 0.500000
vt 0.750000 0.500000
vt 0.125000 0.500000
vt 0.312459 0.500000
vt 0.250000 0.500000
vt 0.625000 0.500000
vt 0.687541 0.500000
vt 0.187500 0.500000
vt 0.875000 0.500000
vt 0.625000 0.250000
vt 0.625000 1.000000
vt 0.875000 0.625000
vt 0.625000 0.125000
vt 0.625000 0.875000
vt 0.625000 0.375000
vt 0.625000 0.000000
s 0
usemtl Material.002
f 41/1/1 3/2/1 43/3/1
f 19/4/2 7/5/2 22/6/2
f 32/7/3 5/8/3 34/9/3
f 26/10/4 1/11/4 29/12/4
f 38/13/5 5/8/5 20/14/5
f 40/15/6 2/16/6 26/17/6
f 41/18/6 30/19/6 50/20/6
f 42/21/5 24/22/5 48/23/5
f 44/24/7 11/25/7 42/21/7
f 33/26/8 9/27/8 31/28/8
f 45/29/5 27/30/5 49/31/5
f 47/32/6 17/33/6 21/34/6
f 35/35/6 23/36/6 37/37/6
f 36/38/5 29/39/5 39/40/5
f 23/41/9 15/42/9 20/43/9
f 28/44/10 13/45/10 25/46/10
f 5/8/11 23/41/11 20/43/11
f 37/37/6 6/47/6 32/7/6
f 44/24/6 21/34/6 12/48/6
f 48/23/5 18/49/5 45/29/5
f 36/38/5 20/14/5 15/50/5
f 13/45/12 19/4/12 22/6/12
f 3/2/13 28/44/13 25/46/13
f 39/40/5 1/51/5 31/52/5
f 43/53/5 27/30/5 9/54/5
f 50/20/6 17/33/6 46/55/6
f 35/35/6 26/17/6 16/56/6
f 15/42/14 26/10/14 29/12/14
f 17/33/6 40/15/6 35/35/6
f 27/30/5 31/52/5 9/54/5
f 24/22/5 36/38/5 18/49/5
f 21/34/6 32/7/6 12/48/6
f 18/49/5 39/40/5 27/30/5
f 17/33/6 37/37/6 21/34/6
f 1/57/15 33/26/15 31/28/15
f 30/19/6 33/58/6 40/15/6
f 24/22/5 34/9/5 38/13/5
f 11/25/16 32/7/16 34/9/16
f 28/59/6 46/55/6 14/60/6
f 3/61/5 49/31/5 43/53/5
f 22/62/5 45/29/5 13/63/5
f 8/64/6 47/32/6 44/24/6
f 19/65/6 46/55/6 47/32/6
f 25/66/5 45/29/5 49/31/5
f 7/5/17 44/24/17 42/21/17
f 7/5/5 48/23/5 22/62/5
f 4/67/6 50/20/6 28/59/6
f 9/27/18 41/1/18 43/3/18
f 41/1/19 4/68/19 3/2/19
f 19/4/20 8/64/20 7/5/20
f 32/7/21 6/47/21 5/8/21
f 26/10/22 2/69/22 1/11/22
f 38/13/5 34/9/5 5/8/5
f 40/15/6 33/58/6 2/16/6
f 41/18/6 10/70/6 30/19/6
f 42/21/5 11/25/5 24/22/5
f 44/24/23 12/48/23 11/25/23
f 33/26/24 10/71/24 9/27/24
f 45/29/5 18/49/5 27/30/5
f 47/32/6 46/55/6 17/33/6
f 35/35/6 16/56/6 23/36/6
f 36/38/5 15/50/5 29/39/5
f 23/41/25 16/72/25 15/42/25
f 28/44/26 14/73/26 13/45/26
f 5/8/27 6/47/27 23/41/27
f 37/37/6 23/36/6 6/47/6
f 44/24/6 47/32/6 21/34/6
f 48/23/5 24/22/5 18/49/5
f 36/38/5 38/13/5 20/14/5
f 13/45/28 14/73/28 19/4/28
f 3/2/29 4/68/29 28/44/29
f 39/40/5 29/39/5 1/51/5
f 43/53/5 49/31/5 27/30/5
f 50/20/6 30/19/6 17/33/6
f 35/35/6 40/15/6 26/17/6
f 15/42/30 16/72/30 26/10/30
f 17/33/6 30/19/6 40/15/6
f 27/30/5 39/40/5 31/52/5
f 24/22/5 38/13/5 36/38/5
f 21/34/6 37/37/6 32/7/6
f 18/49/5 36/38/5 39/40/5
f 17/33/6 35/35/6 37/37/6
f 1/57/31 2/74/31 33/26/31
f 30/19/6 10/70/6 33/58/6
f 24/22/5 11/25/5 34/9/5
f 11/25/32 12/48/32 32/7/32
f 28/59/6 50/20/6 46/55/6
f 3/61/5 25/66/5 49/31/5
f 22/62/5 48/23/5 45/29/5
f 8/64/6 19/65/6 47/32/6
f 19/65/6 14/60/6 46/55/6
f 25/66/5 13/63/5 45/29/5
f 7/5/33 8/64/33 44/24/33
f 7/5/5 42/21/5 48/23/5
f 4/67/6 41/18/6 50/20/6
f 9/27/34 10/71/34 41/1/34
