# Blender 4.4.1
# www.blender.org
mtllib MWdoor.mtl
o beveled_cuboid.010
v 0.178547 1.862499 0.023154
v 0.178547 -0.012501 0.023154
v -0.028184 0.143749 0.023154
v -0.028184 1.706249 0.023154
v 0.178547 0.143749 0.186615
v 0.178547 1.706249 0.186615
v 0.378066 -0.012501 0.023154
v 0.378066 0.143749 0.186615
v 0.378066 1.706249 0.186615
v 0.378066 1.862499 0.023154
v 1.790325 1.706249 0.186615
v 1.790325 0.143749 0.186615
v 1.790325 -0.012501 0.023154
v 1.790325 1.862499 0.023154
v 1.790325 1.487499 0.186615
v 0.378066 1.487499 0.186615
v 0.178547 1.487499 0.186615
v -0.028184 1.487499 0.023154
v 1.790325 0.315624 0.186615
v 0.378066 0.315624 0.186615
v 0.178547 0.315624 0.186615
v -0.028184 0.315624 0.023154
v 1.996455 0.315624 0.186615
v 1.996455 1.487499 0.186615
v 1.996455 1.706249 0.186615
v 1.996455 1.862499 0.023154
v 1.996455 -0.012501 0.023154
v 1.996455 0.143749 0.186615
v 0.448679 1.428906 0.155365
v 1.719713 0.374218 0.155365
v 0.448679 0.374218 0.155365
v 1.719713 1.428906 0.155365
v 1.996455 1.151562 0.186615
v -0.028184 1.151562 0.023154
v 0.178547 1.151562 0.186615
v 0.378066 1.151562 0.186615
v 1.719713 1.151562 0.155365
v 1.790325 1.151562 0.186615
v 0.315566 1.487499 0.186615
v 0.386179 1.428906 0.155365
v 1.793435 1.327041 0.380172
v 1.826375 1.440426 0.424056
v 1.892256 1.440426 0.424056
v 1.925197 1.327041 0.380172
v 1.892256 1.213657 0.336290
v 1.826375 1.213657 0.336290
v 1.793435 1.382017 0.146751
v 1.826375 1.509684 0.129989
v 1.892256 1.509684 0.129989
v 1.925197 1.382017 0.146751
v 1.892256 1.254349 0.163513
v 1.826375 1.254349 0.163513
v 1.793435 0.399232 0.146751
v 1.826375 0.271564 0.129989
v 1.892256 0.271564 0.129989
v 1.925197 0.399232 0.146751
v 1.892256 0.526899 0.163513
v 1.826375 0.526899 0.163513
v 1.793435 0.454208 0.380172
v 1.826375 0.340823 0.424056
v 1.892256 0.340823 0.424056
v 1.925197 0.454208 0.380172
v 1.892256 0.567592 0.336290
v 1.826375 0.567592 0.336290
v 1.714642 0.375358 0.023154
v 1.714642 0.375358 0.155365
v 1.714642 1.424642 0.023154
v 1.714642 1.424642 0.155365
v 1.714642 1.151562 0.155365
v 1.714642 1.148461 0.155365
v 0.445358 1.424642 0.023154
v 0.445358 1.424642 0.156835
v 0.447593 1.424642 0.155845
v 0.448679 1.424642 0.155365
v 1.700170 1.424642 0.155365
v 1.379954 0.375358 0.023154
v 0.445358 0.375358 0.023154
v 0.450543 0.375358 0.155365
v 0.448679 0.375358 0.155365
v 0.445358 0.375358 0.156835
v 0.448575 0.375358 0.155411
v 0.445358 1.258684 0.023154
v 0.445358 1.415863 0.156835
v 0.445358 1.151562 0.156835
v 0.445358 0.410775 0.156835
vn -0.0000 -0.0000 1.0000
vn -0.0000 0.7229 0.6910
vn -0.0000 -0.7229 0.6910
vn -0.6202 -0.0000 0.7844
vn -0.4795 -0.6344 0.6064
vn -0.4795 0.6344 0.6064
vn 0.5001 0.7071 0.4999
vn 0.4999 -0.7071 0.5000
vn 0.2500 -0.6124 0.7500
vn 0.8867 0.4623 -0.0058
vn 0.9590 -0.0125 0.2830
vn 0.8867 0.3236 0.3302
vn 0.4047 -0.0001 0.9144
vn 0.4047 -0.0000 0.9145
vn -0.0000 0.4706 0.8824
vn -0.4047 -0.0000 0.9145
vn -0.0000 -0.4706 0.8824
vn 0.4048 -0.0000 0.9144
vn 0.4047 -0.0000 0.9144
vn 0.9591 -0.1960 -0.2044
vn -0.0000 -0.0000 -1.0000
vn 1.0000 -0.0000 -0.0000
vn -0.9646 0.2568 0.0605
vn -0.0000 0.9734 0.2292
vn 0.9646 0.2568 0.0605
vn 0.9646 -0.2568 -0.0605
vn -0.0000 -0.9734 -0.2292
vn -0.9646 -0.2568 -0.0605
vn -0.9646 -0.2568 0.0605
vn -0.0000 -0.9734 0.2292
vn 0.9646 -0.2568 0.0605
vn 0.9646 0.2568 -0.0605
vn -0.0000 0.9734 -0.2293
vn -0.9646 0.2568 -0.0605
vn -0.7998 -0.0000 0.6003
vn 0.7998 -0.0000 0.6003
vn 0.7997 -0.0000 -0.6003
vn -0.7998 -0.0000 -0.6003
vn 0.4045 -0.0000 0.9145
vn 0.4046 -0.0000 0.9145
vn -1.0000 -0.0000 -0.0000
vn -0.0000 -1.0000 -0.0000
vn 0.4047 -0.0001 0.9145
vn -0.0000 1.0000 -0.0000
vn -0.9714 -0.0000 0.2373
vn -0.0000 -0.0780 0.9970
vt 0.324219 0.972656
vt 0.500752 1.000000
vt 0.324219 1.000000
vt 0.762470 0.424859
vt 0.585938 0.453125
vt 0.585938 0.424859
vt 0.762470 0.382812
vt 0.585938 0.411079
vt 0.585938 0.382812
vt 0.234375 0.503906
vt 0.267319 0.531250
vt 0.234375 0.531250
vt 0.560998 0.382812
vt 0.560998 0.411079
vt 0.531551 0.396308
vt 0.560998 0.453125
vt 0.531551 0.439629
vt 0.560998 0.424859
vt 0.299279 0.972656
vt 0.299279 1.000000
vt 0.324219 0.930664
vt 0.299279 0.826172
vt 0.324219 0.826172
vt 0.267319 0.461914
vt 0.234375 0.357422
vt 0.267319 0.357422
vt 0.500752 0.826172
vt 0.324219 0.804688
vt 0.500752 0.804688
vt 0.299279 0.804688
vt 0.234375 0.335938
vt 0.267319 0.335938
vt 0.526517 0.930664
vt 0.526517 0.826172
vt 0.526517 0.972656
vt 0.500752 0.972656
vt 0.788236 0.424859
vt 0.762470 0.453125
vt 0.788236 0.382812
vt 0.762470 0.411079
vt 0.526517 0.804688
vt 0.692087 0.462057
vt 0.533842 0.461914
vt 0.692721 0.461914
vt 0.721327 0.176554
vt 0.712128 0.273579
vt 0.712128 0.169087
vt 0.635158 0.238854
vt 0.802864 0.231042
vt 0.794037 0.238854
vt 0.747767 0.252521
vt 0.738115 0.155353
vt 0.747767 0.148029
vt 0.639808 0.230918
vt 0.807514 0.238731
vt 0.630982 0.238731
vt 0.234375 0.461914
vt 0.267319 0.503906
vt 0.299279 0.930664
vt 0.744704 0.253577
vt 0.745158 0.254110
vt 0.735505 0.261434
vt 0.724163 0.217430
vt 0.733815 0.182762
vt 0.733815 0.224754
vt 0.500752 0.930664
vt 0.453125 0.848054
vt 0.445312 0.841629
vt 0.453125 0.835938
vt 0.000000 1.000000
vt 0.375000 0.904330
vt 0.340147 0.896775
vt 0.369267 0.889665
vt 0.492188 0.867188
vt 0.484375 0.906250
vt 0.484375 0.867188
vt 0.421875 0.951205
vt 0.456727 0.943651
vt 0.458561 0.960162
vt 0.427607 0.936540
vt 0.454894 0.927138
vt 0.456728 0.943651
vt 0.414062 0.937500
vt 0.406250 0.960938
vt 0.406250 0.937500
vt 0.341980 0.880263
vt 0.363535 0.875000
vt 0.376834 0.852450
vt 0.411687 0.844895
vt 0.405954 0.859560
vt 0.562500 0.320312
vt 0.554688 0.359375
vt 0.554688 0.320312
vt 0.417665 0.900099
vt 0.382812 0.892545
vt 0.419499 0.883587
vt 0.415831 0.916612
vt 0.388544 0.907210
vt 0.398438 0.937500
vt 0.390625 0.960938
vt 0.390625 0.937500
vt 0.378667 0.868963
vt 0.400222 0.874225
vt 0.492188 0.253175
vt 0.484375 0.376452
vt 0.484375 0.267348
vt 0.476562 0.250000
vt 0.468750 0.390625
vt 0.468750 0.250000
vt 0.507812 0.267348
vt 0.500000 0.390625
vt 0.500000 0.253175
vt 0.476562 0.866006
vt 0.468750 0.960938
vt 0.468750 0.851833
vt 0.437500 0.835938
vt 0.429688 0.914062
vt 0.429688 0.835938
vt 0.281250 0.436319
vt 0.289062 0.531250
vt 0.281250 0.517077
vt 0.526517 1.000000
vt 0.788236 0.453125
vt 0.788236 0.411079
vt 0.692721 0.559082
vt 0.692087 0.559082
vt 0.692087 0.558694
vt 0.460938 0.251465
vt 0.460938 0.251608
vt 0.460924 0.251608
vt 0.613455 0.176846
vt 0.604628 0.169034
vt 0.781161 0.169034
vt 0.792723 0.244770
vt 0.783071 0.244770
vt 0.783071 0.147602
vt 0.605704 0.189062
vt 0.764583 0.189062
vt 0.773410 0.196875
vt 0.762574 0.280961
vt 0.771773 0.280961
vt 0.771773 0.313999
vt 0.651304 0.267036
vt 0.651304 0.232368
vt 0.660956 0.232368
vt 0.445312 0.853745
vt 0.338313 0.913288
vt 0.492188 0.906250
vt 0.433340 0.921875
vt 0.414062 0.960938
vt 0.375000 0.835938
vt 0.562500 0.359375
vt 0.394276 0.921875
vt 0.398438 0.960938
vt 0.492188 0.390625
vt 0.476562 0.390625
vt 0.507812 0.376452
vt 0.476562 0.946764
vt 0.437500 0.914062
vt 0.289062 0.422145
vt 0.519168 0.178029
vt 0.704105 0.178029
vt 0.769168 0.146905
vt 0.840242 0.227635
vt 0.840455 0.227748
vt 0.840896 0.196511
vt 0.732401 0.256035
vt 0.732401 0.348633
vt 0.723202 0.348633
vt 0.534075 0.462057
vt 0.533842 0.462057
vt 0.690278 0.593217
vt 0.533842 0.593750
vt 0.533842 0.593217
vt 0.460790 0.382768
vt 0.460938 0.382768
vt 0.460938 0.383301
vt 0.585459 0.110133
vt 0.622908 0.078663
vt 0.559937 0.078663
vt 0.692087 0.593217
vt 0.692721 0.593750
vt 0.125654 0.670991
vt 0.126021 0.670991
vt 0.309079 0.639867
vt 0.721781 0.176411
vt 0.721767 0.176554
vt 0.721327 0.180981
vt 0.735505 0.219442
vt 0.744704 0.252480
vt 0.745010 0.253577
vt 0.519168 0.146905
vt 0.703366 0.178029
vt 0.769168 0.178029
vt 0.590896 0.196511
vt 0.590896 0.227635
vt 0.593746 0.227635
vt 0.840896 0.227981
vt 0.383438 0.078663
vt 0.375000 0.078663
vt 0.375000 0.110133
vt 0.625000 0.110133
vt 0.625000 0.078663
vt 0.125000 0.639867
vt 0.125000 0.671337
vt 0.125634 0.671002
vt 0.375000 0.670991
vt 0.375000 0.639867
s 1
usemtl m_5d0ffce8-883c-753c-2ce0-25b8eef3ceea.001
f 16/1/1 11/2/1 9/3/1
f 11/4/2 10/5/2 9/6/2
f 13/7/3 8/8/3 7/9/3
f 18/10/4 6/11/4 4/12/4
f 2/13/5 5/14/5 3/15/5
f 1/16/6 4/17/6 6/18/6
f 7/9/3 5/14/3 2/13/3
f 17/19/1 9/3/1 6/20/1
f 9/6/2 1/16/2 6/18/2
f 36/21/1 21/22/1 20/23/1
f 35/24/4 22/25/4 21/26/4
f 19/27/1 8/28/1 12/29/1
f 20/23/1 5/30/1 8/28/1
f 21/26/4 3/31/4 5/32/4
f 33/33/7 19/27/1 23/34/8
f 24/35/9 11/2/1 15/36/1
f 25/37/10 14/38/2 11/4/2
f 27/39/11 12/40/3 13/7/3
f 28/41/12 19/27/1 12/29/1
f 66/42/1 31/43/1 30/44/1
f 80/45/13 36/46/14 20/47/14
f 31/48/15 19/49/15 30/50/15
f 38/51/16 30/52/16 19/53/16
f 29/54/17 15/55/17 16/56/17
f 34/57/4 17/58/4 18/10/4
f 35/59/1 16/1/1 17/19/1
f 72/60/18 29/61/19 16/62/14
f 32/63/16 38/64/16 15/65/16
f 38/66/1 24/35/9 15/36/1
f 16/67/17 40/68/17 29/69/17
f 27/70/11 33/70/7 23/70/8
f 24/70/9 33/70/7 26/70/20
f 2/70/21 22/70/21 7/70/21
s 0
f 22/70/22 18/70/22 4/70/22
s 1
f 4/70/21 10/70/21 14/70/21
f 26/70/20 13/70/21 14/70/21
f 7/70/21 77/70/21 13/70/21
f 4/70/21 14/70/21 67/70/21
f 42/71/23 47/72/23 41/73/23
f 43/74/24 48/75/24 42/76/24
f 43/77/25 50/78/25 49/79/25
f 44/80/26 51/81/26 50/82/26
f 46/83/27 51/84/27 45/85/27
f 41/73/28 52/86/28 46/87/28
f 53/88/29 60/89/29 59/90/29
f 55/91/30 60/92/30 54/93/30
f 56/94/31 61/95/31 55/96/31
f 57/97/32 62/98/32 56/94/32
f 58/99/33 63/100/33 57/101/33
f 58/102/34 59/90/34 64/103/34
f 60/104/35 41/105/35 59/106/35
f 61/107/1 42/108/1 60/109/1
f 62/110/36 43/111/36 61/112/36
f 63/113/37 44/114/37 62/115/37
f 64/116/21 45/117/21 63/118/21
f 64/119/38 41/120/38 46/121/38
f 16/1/1 15/36/1 11/2/1
f 11/4/2 14/38/2 10/5/2
f 13/7/3 12/40/3 8/8/3
f 18/10/4 17/58/4 6/11/4
f 7/9/3 8/8/3 5/14/3
f 17/19/1 16/1/1 9/3/1
f 9/6/2 10/5/2 1/16/2
f 36/21/1 35/59/1 21/22/1
f 35/24/4 34/57/4 22/25/4
f 19/27/1 20/23/1 8/28/1
f 20/23/1 21/22/1 5/30/1
f 21/26/4 22/25/4 3/31/4
f 33/33/7 38/66/1 19/27/1
f 24/35/9 25/122/10 11/2/1
f 25/37/10 26/123/20 14/38/2
f 27/39/11 28/124/12 12/40/3
f 28/41/12 23/34/8 19/27/1
f 37/125/1 69/126/1 70/127/1
f 31/128/14 79/129/39 81/130/40
f 31/131/15 20/132/15 19/133/15
f 38/134/16 37/135/16 30/136/16
f 29/137/17 32/138/17 15/139/17
f 34/57/4 35/24/4 17/58/4
f 35/59/1 36/21/1 16/1/1
f 36/140/14 84/141/14 83/142/14
f 32/143/16 37/144/16 38/145/16
f 38/66/1 33/33/7 24/35/9
f 16/67/17 39/146/17 40/68/17
f 27/70/11 23/70/8 28/70/12
f 24/70/9 26/70/20 25/70/10
f 2/70/21 3/70/21 22/70/21
s 0
f 22/70/22 34/70/22 18/70/22
s 1
f 4/70/21 1/70/21 10/70/21
f 26/70/20 27/70/11 13/70/21
f 7/70/21 22/70/21 4/70/21
f 42/71/23 48/147/23 47/72/23
f 43/74/24 49/148/24 48/75/24
f 43/77/25 44/80/25 50/78/25
f 44/80/26 45/149/26 51/81/26
f 46/83/27 52/150/27 51/84/27
f 41/73/28 47/72/28 52/86/28
f 53/88/29 54/151/29 60/89/29
f 55/91/30 61/152/30 60/92/30
f 56/94/31 62/98/31 61/95/31
f 57/97/32 63/153/32 62/98/32
f 58/99/33 64/154/33 63/100/33
f 58/102/34 53/88/34 59/90/34
f 60/104/35 42/155/35 41/105/35
f 61/107/1 43/156/1 42/108/1
f 62/110/36 44/157/36 43/111/36
f 63/113/37 45/158/37 44/114/37
f 64/116/21 46/159/21 45/117/21
f 64/119/38 59/160/38 41/120/38
f 66/161/41 69/162/41 67/163/41
f 74/164/42 73/165/42 71/166/42
f 85/167/14 84/168/14 36/169/14
f 78/170/1 79/171/1 31/43/1
f 75/172/1 29/173/1 74/174/1
f 73/175/43 74/176/14 29/177/19
f 82/178/22 83/179/22 84/180/22
f 68/181/1 37/125/1 32/182/1
f 79/183/44 78/184/44 76/185/44
f 30/44/1 37/125/1 70/127/1
f 66/42/1 78/170/1 31/43/1
f 30/44/1 70/127/1 66/42/1
f 20/47/14 31/186/14 81/187/40
f 80/45/13 85/188/14 36/46/14
f 20/47/14 81/187/40 80/45/13
f 16/62/14 36/189/14 83/190/14
f 72/60/18 73/191/43 29/61/19
f 16/62/14 83/190/14 72/60/18
f 7/70/21 4/70/21 82/70/21
f 77/70/21 76/70/21 13/70/21
f 7/70/21 82/70/21 77/70/21
f 13/70/21 76/70/21 65/70/21
f 13/70/21 65/70/21 67/70/21
f 71/70/21 82/70/21 4/70/21
f 14/70/21 13/70/21 67/70/21
f 67/70/21 71/70/21 4/70/21
f 67/163/41 65/192/41 66/161/41
s 0
f 66/161/45 70/193/45 69/162/45
s 1
f 69/162/41 68/194/41 67/163/41
f 71/166/42 67/195/42 68/196/42
s 0
f 68/196/46 75/197/46 74/164/46
s 1
f 73/165/42 72/198/42 71/166/42
f 71/166/42 68/196/42 74/164/42
f 75/172/1 32/182/1 29/173/1
f 85/199/22 80/200/22 77/201/22
f 82/178/22 71/202/22 72/203/22
f 85/199/22 77/201/22 82/178/22
f 84/180/22 85/199/22 82/178/22
f 82/178/22 72/203/22 83/179/22
f 32/182/1 75/172/1 68/181/1
f 68/181/1 69/126/1 37/125/1
f 77/204/44 80/205/44 81/206/44
f 77/204/44 81/206/44 79/183/44
f 66/207/44 65/208/44 76/185/44
f 76/185/44 77/204/44 79/183/44
f 78/184/44 66/207/44 76/185/44
usemtl m_001f246d-196b-b9bd-26c4-22b9969e0eb9.001
f 26/70/20 33/70/7 27/70/11
