# Blender 4.4.1
# www.blender.org
mtllib MWScenen.mtl
o Cube
v 0.424121 0.370000 0.020000
v 0.424121 0.370000 0.040000
v 0.424121 1.420000 0.020000
v 0.424121 1.420000 0.040000
v 1.714121 0.370000 0.020000
v 1.714121 0.370000 0.040000
v 1.714121 1.420000 0.020000
v 1.714121 1.420000 0.040000
vn -1.0000 -0.0000 -0.0000
vn -0.0000 1.0000 -0.0000
vn 1.0000 -0.0000 -0.0000
vn -0.0000 -1.0000 -0.0000
vn -0.0000 -0.0000 -1.0000
vn -0.0000 -0.0000 1.0000
vt 0.906977 0.971259
vt 0.093023 0.986763
vt 0.906977 0.986763
vt -0.000000 0.966608
vt 1.000000 0.982112
vt -0.000000 0.982112
vt 0.093023 0.971259
vt 1.000000 0.966608
vt -0.000000 0.982112
vt 1.000000 0.982112
vt 1.000000 0.906977
vt -0.000000 0.093023
vt -0.000000 0.906977
vt 1.000000 0.093023
vt 1.000000 0.966608
vt -0.000000 0.966608
s 0
usemtl Material.001
f 2/1/1 3/2/1 1/3/1
f 4/4/2 7/5/2 3/6/2
f 8/7/3 5/3/3 7/2/3
f 6/8/4 1/9/4 5/10/4
f 7/11/5 1/12/5 3/13/5
f 4/13/6 6/14/6 8/11/6
f 2/1/1 4/7/1 3/2/1
f 4/4/2 8/15/2 7/5/2
f 8/7/3 6/1/3 5/3/3
f 6/8/4 2/16/4 1/9/4
f 7/11/5 5/14/5 1/12/5
f 4/13/6 2/12/6 6/14/6
