# Blender 4.4.1
# www.blender.org
mtllib Title.mtl
o Text.001
v 2.121000 0.594000 0.080000
v 2.121000 0.388000 0.080000
v 2.400000 0.388000 0.080000
v 2.400000 0.300000 0.080000
v 2.121000 0.300000 0.080000
v 2.121000 0.088000 0.080000
v 2.419000 0.088000 0.080000
v 2.419000 -0.000000 0.080000
v 2.023000 -0.000000 0.080000
v 2.023000 0.682000 0.080000
v 2.410000 0.682000 0.080000
v 2.410000 0.594000 0.080000
v 1.938000 0.088000 0.080000
v 1.938000 -0.000000 0.080000
v 1.532000 -0.000000 0.080000
v 1.532000 0.682000 0.080000
v 1.630000 0.682000 0.080000
v 1.630000 0.088000 0.080000
v 1.205000 0.594000 0.080000
v 1.205000 -0.000000 0.080000
v 1.107000 -0.000000 0.080000
v 1.107000 0.594000 0.080000
v 0.871000 0.594000 0.080000
v 0.871000 0.682000 0.080000
v 1.441000 0.682000 0.080000
v 1.441000 0.594000 0.080000
v 0.680000 -0.000000 0.080000
v 0.680000 0.682000 0.080000
v 0.778000 0.682000 0.080000
v 0.778000 -0.000000 0.080000
v 0.351000 0.594000 0.080000
v 0.351000 -0.000000 0.080000
v 0.253000 -0.000000 0.080000
v 0.253000 0.594000 0.080000
v 0.017000 0.594000 0.080000
v 0.017000 0.682000 0.080000
v 0.587000 0.682000 0.080000
v 0.587000 0.594000 0.080000
v 2.121000 0.594000 -0.080000
v 2.121000 0.388000 -0.080000
v 2.400000 0.388000 -0.080000
v 2.400000 0.300000 -0.080000
v 2.121000 0.300000 -0.080000
v 2.121000 0.088000 -0.080000
v 2.419000 0.088000 -0.080000
v 2.419000 0.000000 -0.080000
v 2.023000 0.000000 -0.080000
v 2.023000 0.682000 -0.080000
v 2.410000 0.682000 -0.080000
v 2.410000 0.594000 -0.080000
v 1.938000 0.088000 -0.080000
v 1.938000 0.000000 -0.080000
v 1.532000 0.000000 -0.080000
v 1.532000 0.682000 -0.080000
v 1.630000 0.682000 -0.080000
v 1.630000 0.088000 -0.080000
v 1.205000 0.594000 -0.080000
v 1.205000 0.000000 -0.080000
v 1.107000 0.000000 -0.080000
v 1.107000 0.594000 -0.080000
v 0.871000 0.594000 -0.080000
v 0.871000 0.682000 -0.080000
v 1.441000 0.682000 -0.080000
v 1.441000 0.594000 -0.080000
v 0.680000 0.000000 -0.080000
v 0.680000 0.682000 -0.080000
v 0.778000 0.682000 -0.080000
v 0.778000 0.000000 -0.080000
v 0.351000 0.594000 -0.080000
v 0.351000 0.000000 -0.080000
v 0.253000 0.000000 -0.080000
v 0.253000 0.594000 -0.080000
v 0.017000 0.594000 -0.080000
v 0.017000 0.682000 -0.080000
v 0.587000 0.682000 -0.080000
v 0.587000 0.594000 -0.080000
v 0.351000 0.594000 -0.080000
v 0.351000 0.594000 0.080000
v 0.351000 0.000000 -0.080000
v 0.351000 -0.000000 0.080000
v 0.253000 0.000000 -0.080000
v 0.253000 -0.000000 0.080000
v 0.253000 0.594000 -0.080000
v 0.253000 0.594000 0.080000
v 0.017000 0.594000 -0.080000
v 0.017000 0.594000 0.080000
v 0.017000 0.682000 -0.080000
v 0.017000 0.682000 0.080000
v 0.587000 0.682000 -0.080000
v 0.587000 0.682000 0.080000
v 0.587000 0.594000 -0.080000
v 0.587000 0.594000 0.080000
v 0.680000 0.000000 -0.080000
v 0.680000 -0.000000 0.080000
v 0.680000 0.682000 -0.080000
v 0.680000 0.682000 0.080000
v 0.778000 0.682000 -0.080000
v 0.778000 0.682000 0.080000
v 0.778000 0.000000 -0.080000
v 0.778000 -0.000000 0.080000
v 1.205000 0.594000 -0.080000
v 1.205000 0.594000 0.080000
v 1.205000 0.000000 -0.080000
v 1.205000 -0.000000 0.080000
v 1.107000 0.000000 -0.080000
v 1.107000 -0.000000 0.080000
v 1.107000 0.594000 -0.080000
v 1.107000 0.594000 0.080000
v 0.871000 0.594000 -0.080000
v 0.871000 0.594000 0.080000
v 0.871000 0.682000 -0.080000
v 0.871000 0.682000 0.080000
v 1.441000 0.682000 -0.080000
v 1.441000 0.682000 0.080000
v 1.441000 0.594000 -0.080000
v 1.441000 0.594000 0.080000
v 1.938000 0.088000 -0.080000
v 1.938000 0.088000 0.080000
v 1.938000 0.000000 -0.080000
v 1.938000 -0.000000 0.080000
v 1.532000 0.000000 -0.080000
v 1.532000 -0.000000 0.080000
v 1.532000 0.682000 -0.080000
v 1.532000 0.682000 0.080000
v 1.630000 0.682000 -0.080000
v 1.630000 0.682000 0.080000
v 1.630000 0.088000 -0.080000
v 1.630000 0.088000 0.080000
v 2.121000 0.594000 -0.080000
v 2.121000 0.594000 0.080000
v 2.121000 0.388000 -0.080000
v 2.121000 0.388000 0.080000
v 2.400000 0.388000 -0.080000
v 2.400000 0.388000 0.080000
v 2.400000 0.300000 -0.080000
v 2.400000 0.300000 0.080000
v 2.121000 0.300000 -0.080000
v 2.121000 0.300000 0.080000
v 2.121000 0.088000 -0.080000
v 2.121000 0.088000 0.080000
v 2.419000 0.088000 -0.080000
v 2.419000 0.088000 0.080000
v 2.419000 0.000000 -0.080000
v 2.419000 -0.000000 0.080000
v 2.023000 0.000000 -0.080000
v 2.023000 -0.000000 0.080000
v 2.023000 0.682000 -0.080000
v 2.023000 0.682000 0.080000
v 2.410000 0.682000 -0.080000
v 2.410000 0.682000 0.080000
v 2.410000 0.594000 -0.080000
v 2.410000 0.594000 0.080000
vn -0.0000 -0.0000 1.0000
vn -0.0000 -0.0000 -1.0000
vn 0.7071 -0.7071 -0.0000
vn -0.7071 -0.7071 -0.0000
vn -0.7071 0.7071 -0.0000
vn 0.7071 0.7071 -0.0000
vt 0.727273 0.000000
vt 0.000000 0.000000
vt 0.818182 0.000000
vt 0.909091 0.000000
vt 1.000000 0.000000
vt 0.090909 0.000000
vt 0.363636 0.000000
vt 0.181818 0.000000
vt 0.272727 0.000000
vt 0.454545 0.000000
vt 0.545455 0.000000
vt 0.636364 0.000000
vt 0.400000 0.000000
vt 0.800000 0.000000
vt 0.600000 0.000000
vt 0.200000 0.000000
vt 0.571429 0.000000
vt 0.857143 0.000000
vt 0.714286 0.000000
vt 0.428571 0.000000
vt 0.285714 0.000000
vt 0.142857 0.000000
vt 0.666667 0.000000
vt 0.333333 0.000000
vt 0.125000 1.000000
vt 0.000000 1.000000
vt 0.250000 1.000000
vt 0.125000 0.000000
vt 0.375000 1.000000
vt 0.250000 0.000000
vt 0.500000 1.000000
vt 0.375000 0.000000
vt 0.625000 1.000000
vt 0.500000 0.000000
vt 0.750000 1.000000
vt 0.625000 0.000000
vt 0.875000 1.000000
vt 0.750000 0.000000
vt 1.000000 1.000000
vt 0.875000 0.000000
vt 0.166667 1.000000
vt 0.333333 1.000000
vt 0.166667 0.000000
vt 0.666667 1.000000
vt 0.833333 1.000000
vt 0.833333 0.000000
vt 0.083333 1.000000
vt 0.083333 0.000000
vt 0.416667 1.000000
vt 0.416667 0.000000
vt 0.583333 1.000000
vt 0.583333 0.000000
vt 0.916667 1.000000
vt 0.916667 0.000000
s 0
usemtl Material.006
f 9/1/1 1/2/1 10/3/1
f 1/2/1 11/4/1 10/3/1
f 1/2/1 12/5/1 11/4/1
f 9/1/1 2/6/1 1/2/1
f 9/1/1 5/7/1 2/6/1
f 5/7/1 3/8/1 2/6/1
f 5/7/1 4/9/1 3/8/1
f 9/1/1 6/10/1 5/7/1
f 9/1/1 7/11/1 6/10/1
f 9/1/1 8/12/1 7/11/1
f 15/13/1 17/14/1 16/15/1
f 15/13/1 18/5/1 17/14/1
f 15/13/1 13/2/1 18/5/1
f 15/13/1 14/16/1 13/2/1
f 23/17/1 25/18/1 24/19/1
f 23/17/1 26/5/1 25/18/1
f 22/20/1 26/5/1 23/17/1
f 21/21/1 19/2/1 22/20/1
f 19/2/1 26/5/1 22/20/1
f 21/21/1 20/22/1 19/2/1
f 27/2/1 29/23/1 28/24/1
f 27/2/1 30/5/1 29/23/1
f 35/17/1 37/18/1 36/19/1
f 35/17/1 38/5/1 37/18/1
f 34/20/1 38/5/1 35/17/1
f 33/21/1 31/2/1 34/20/1
f 31/2/1 38/5/1 34/20/1
f 33/21/1 32/22/1 31/2/1
f 47/1/2 48/3/2 39/2/2
f 39/2/2 48/3/2 49/4/2
f 39/2/2 49/4/2 50/5/2
f 47/1/2 39/2/2 40/6/2
f 47/1/2 40/6/2 43/7/2
f 43/7/2 40/6/2 41/8/2
f 43/7/2 41/8/2 42/9/2
f 47/1/2 43/7/2 44/10/2
f 47/1/2 44/10/2 45/11/2
f 47/1/2 45/11/2 46/12/2
f 53/13/2 54/15/2 55/14/2
f 53/13/2 55/14/2 56/5/2
f 53/13/2 56/5/2 51/2/2
f 53/13/2 51/2/2 52/16/2
f 61/17/2 62/19/2 63/18/2
f 61/17/2 63/18/2 64/5/2
f 60/20/1 61/17/1 64/5/1
f 59/21/2 60/20/2 57/2/2
f 57/2/1 60/20/1 64/5/1
f 59/21/2 57/2/2 58/22/2
f 65/2/2 66/24/2 67/23/2
f 65/2/2 67/23/2 68/5/2
f 73/17/2 74/19/2 75/18/2
f 73/17/2 75/18/2 76/5/2
f 72/20/1 73/17/1 76/5/1
f 71/21/2 72/20/2 69/2/2
f 69/2/1 72/20/1 76/5/1
f 71/21/2 69/2/2 70/22/2
s 1
f 80/25/3 77/2/3 78/26/3
f 82/27/4 79/28/3 80/25/3
f 84/29/4 81/30/4 82/27/4
f 86/31/4 83/32/4 84/29/4
f 88/33/5 85/34/4 86/31/4
f 90/35/6 87/36/5 88/33/5
f 92/37/3 89/38/6 90/35/6
f 78/39/3 91/40/3 92/37/3
f 96/27/5 93/2/4 94/26/4
f 98/31/6 95/30/5 96/27/5
f 100/35/3 97/34/6 98/31/6
f 94/39/4 99/38/3 100/35/3
f 104/25/3 101/2/3 102/26/3
f 106/27/4 103/28/3 104/25/3
f 108/29/4 105/30/4 106/27/4
f 110/31/4 107/32/4 108/29/4
f 112/33/5 109/34/4 110/31/4
f 114/35/6 111/36/5 112/33/5
f 116/37/3 113/38/6 114/35/6
f 102/39/3 115/40/3 116/37/3
f 120/41/3 117/2/6 118/26/6
f 122/42/4 119/43/3 120/41/3
f 124/31/5 121/24/4 122/42/4
f 126/44/6 123/34/5 124/31/5
f 128/45/6 125/23/6 126/44/6
f 118/39/6 127/46/6 128/45/6
f 132/47/6 129/2/3 130/26/3
f 134/41/6 131/48/6 132/47/6
f 136/27/3 133/43/6 134/41/6
f 138/42/3 135/30/3 136/27/3
f 140/49/6 137/24/3 138/42/3
f 142/31/6 139/50/6 140/49/6
f 144/51/3 141/34/6 142/31/6
f 146/44/4 143/52/3 144/51/3
f 148/35/5 145/23/4 146/44/4
f 150/45/6 147/38/5 148/35/5
f 152/53/3 149/46/6 150/45/6
f 130/39/3 151/54/3 152/53/3
f 80/25/3 79/28/3 77/2/3
f 82/27/4 81/30/4 79/28/3
f 84/29/4 83/32/4 81/30/4
f 86/31/4 85/34/4 83/32/4
f 88/33/5 87/36/5 85/34/4
f 90/35/6 89/38/6 87/36/5
f 92/37/3 91/40/3 89/38/6
f 78/39/3 77/5/3 91/40/3
f 96/27/5 95/30/5 93/2/4
f 98/31/6 97/34/6 95/30/5
f 100/35/3 99/38/3 97/34/6
f 94/39/4 93/5/4 99/38/3
f 104/25/3 103/28/3 101/2/3
f 106/27/4 105/30/4 103/28/3
f 108/29/4 107/32/4 105/30/4
f 110/31/4 109/34/4 107/32/4
f 112/33/5 111/36/5 109/34/4
f 114/35/6 113/38/6 111/36/5
f 116/37/3 115/40/3 113/38/6
f 102/39/3 101/5/3 115/40/3
f 120/41/3 119/43/3 117/2/6
f 122/42/4 121/24/4 119/43/3
f 124/31/5 123/34/5 121/24/4
f 126/44/6 125/23/6 123/34/5
f 128/45/6 127/46/6 125/23/6
f 118/39/6 117/5/6 127/46/6
f 132/47/6 131/48/6 129/2/3
f 134/41/6 133/43/6 131/48/6
f 136/27/3 135/30/3 133/43/6
f 138/42/3 137/24/3 135/30/3
f 140/49/6 139/50/6 137/24/3
f 142/31/6 141/34/6 139/50/6
f 144/51/3 143/52/3 141/34/6
f 146/44/4 145/23/4 143/52/3
f 148/35/5 147/38/5 145/23/4
f 150/45/6 149/46/6 147/38/5
f 152/53/3 151/54/3 149/46/6
f 130/39/3 129/5/3 151/54/3
