# Blender 4.4.1
# www.blender.org
mtllib Iron.mtl
o Cube.004
v -1.090820 1.695614 -0.190000
v -1.090820 0.574420 -0.190000
v -1.090820 0.574420 0.190000
v 0.740719 0.691674 0.190000
v -0.798445 0.831673 0.190000
v 0.546185 1.695614 -0.190000
v -1.090820 1.695614 0.190000
v -0.798445 1.435393 -0.190000
v -0.798445 1.435393 0.190000
v 0.601555 1.435393 0.190000
v 0.601555 1.435393 -0.190000
v 0.601555 0.831673 -0.190000
v 0.714566 1.550393 -0.190000
v -0.798445 0.831673 -0.190000
v 0.601555 0.831673 0.190000
v 0.546185 1.695614 0.190000
v 0.857273 1.427314 -0.190000
v 0.740719 0.691674 -0.190000
v 0.857273 1.427314 0.190000
v 0.857273 0.792197 0.190000
v 0.857273 0.792197 -0.190000
v 0.604766 0.574420 -0.190000
v 0.604766 0.574420 0.190000
v -1.500000 0.179957 0.700000
v -1.500000 0.007465 0.700000
v -1.500000 0.007465 -0.700000
v -1.500000 0.179957 -0.700000
v 0.674354 0.007465 -0.700000
v 1.498506 0.179957 -0.002220
v 1.500000 0.179957 -0.006146
v 1.500000 0.007465 -0.006146
v 0.674354 0.179957 -0.700000
v 1.500000 0.007465 -0.000671
v 1.500000 0.179957 -0.000671
v 1.498506 0.007465 -0.002220
v 0.662904 0.179957 0.700000
v 0.662904 0.007465 0.700000
v 0.640034 0.415627 -0.600000
v 0.640034 0.174139 -0.600000
v 0.640034 0.174139 0.600000
v 0.640034 0.415627 0.600000
v -1.359966 0.174139 0.600000
v -1.359966 0.415627 0.600000
v -1.359966 0.174139 -0.600000
v -1.359966 0.415627 -0.600000
v 0.511497 0.580958 -0.522878
v 0.511497 0.408466 -0.522878
v 0.511497 0.408466 0.522878
v 0.511497 0.580958 0.522878
v -1.231429 0.408466 0.522878
v -1.231429 0.580958 0.522878
v -1.231429 0.408466 -0.522878
v -1.231429 0.580958 -0.522878
v -0.732814 0.728487 -0.522878
v -0.732814 0.555995 -0.522878
v -0.732814 0.555995 0.522878
v -0.732814 0.728487 0.522878
v -1.230527 0.555995 0.522878
v -1.230527 0.728487 0.522878
v -1.230527 0.555995 -0.522878
v -1.230527 0.728487 -0.522878
vn -1.0000 -0.0000 -0.0000
vn -0.0000 -0.0000 1.0000
vn -0.0000 1.0000 -0.0000
vn 1.0000 -0.0000 -0.0000
vn -0.0000 -0.0000 -1.0000
vn -0.0000 -1.0000 -0.0000
vn 0.6531 0.7573 -0.0000
vn 0.6531 -0.7573 -0.0000
vn 0.6434 -0.0000 -0.7656
vn 0.7198 -0.0000 -0.6942
vn 0.6434 -0.0000 0.7656
vt 0.331719 0.398438
vt 0.331719 0.258288
vt 0.379219 0.258288
vt 0.386057 0.859851
vt 0.614999 0.874508
vt 0.422604 0.892008
vt 0.229718 0.413437
vt 0.434344 0.413437
vt 0.434344 0.460938
vt 0.504219 0.359375
vt 0.456719 0.359375
vt 0.456719 0.283910
vt 0.566719 0.359375
vt 0.519219 0.359375
vt 0.519219 0.283910
vt 0.593022 0.819035
vt 0.629568 0.851562
vt 0.403895 0.833410
vt 0.622656 0.374375
vt 0.622656 0.421875
vt 0.447656 0.421875
vt 0.002344 0.391250
vt 0.002344 0.343750
vt 0.177344 0.343750
vt 0.003594 0.843750
vt 0.051094 0.792399
vt 0.051094 0.815955
vt 0.400626 0.726070
vt 0.418021 0.743570
vt 0.386057 0.818025
vt 0.597603 0.967473
vt 0.629568 0.966462
vt 0.386057 1.000000
vt 0.394219 0.279986
vt 0.441719 0.279986
vt 0.441719 0.359375
vt 0.003401 0.453750
vt 0.003401 0.406250
vt 0.215349 0.406250
vt 0.386406 0.678691
vt 0.433906 0.656250
vt 0.433906 0.697931
vt 0.642969 0.796875
vt 0.817969 0.775313
vt 0.642969 0.775313
vt 0.641446 1.000000
vt 0.913241 0.978438
vt 0.641446 0.978438
vt 0.000187 0.908090
vt 0.375000 0.995313
vt 0.000000 0.908580
vt 0.572310 0.931563
vt 0.437500 0.953125
vt 0.572310 0.953125
vt 0.003564 0.968750
vt 0.003564 0.947188
vt 0.004248 0.947188
vt 0.015894 0.968750
vt 0.015625 0.968750
vt 0.015625 0.947188
vt 0.000187 0.724723
vt 0.375000 0.812500
vt 0.103205 0.637500
vt 0.642162 0.968750
vt 0.912525 0.947188
vt 0.642162 0.947188
vt 0.433877 0.804688
vt 0.570312 0.783126
vt 0.433877 0.783126
vt 0.643750 0.875000
vt 0.793750 0.844814
vt 0.643750 0.844814
vt 0.632812 0.421875
vt 0.882812 0.391689
vt 0.632812 0.391689
vt 0.643750 0.835938
vt 0.793750 0.805752
vt 0.643750 0.805752
vt 0.632812 0.382812
vt 0.882812 0.352627
vt 0.632812 0.352627
vt 0.250000 0.625000
vt 0.000000 0.625000
vt 0.000000 0.475000
vt 0.257812 0.468750
vt 0.507812 0.618750
vt 0.507812 0.468750
vt 0.579172 0.343750
vt 0.709891 0.322189
vt 0.579172 0.322189
vt 0.641067 0.937500
vt 0.858933 0.915939
vt 0.641067 0.915939
vt 0.001047 0.335938
vt 0.131766 0.314377
vt 0.001047 0.314377
vt 0.641067 0.906250
vt 0.858933 0.884689
vt 0.641067 0.884689
vt 0.733933 0.703125
vt 0.516067 0.703125
vt 0.516067 0.572406
vt 0.516067 0.429688
vt 0.733933 0.560406
vt 0.733933 0.429688
vt 0.641672 0.765625
vt 0.772391 0.744063
vt 0.641672 0.744063
vt 0.000143 1.000000
vt 0.062357 0.978438
vt 0.000143 0.978438
vt 0.641672 0.734375
vt 0.772391 0.712813
vt 0.641672 0.712813
vt 0.000143 0.656250
vt 0.062357 0.634688
vt 0.000143 0.634688
vt 0.249857 0.398438
vt 0.187643 0.398438
vt 0.187643 0.267719
vt 0.257955 0.265625
vt 0.320170 0.396344
vt 0.320170 0.265625
vt 0.379219 0.398438
vt 0.422604 0.967473
vt 0.597603 0.892008
vt 0.598005 0.859851
vt 0.229718 0.460938
vt 0.504219 0.283910
vt 0.566719 0.283910
vt 0.593022 0.743570
vt 0.629568 0.711413
vt 0.418021 0.819035
vt 0.424943 0.851562
vt 0.447656 0.374375
vt 0.177344 0.391250
vt 0.003594 0.792399
vt 0.051094 0.843750
vt 0.417620 0.711413
vt 0.386057 0.738636
vt 0.629568 0.887073
vt 0.590682 1.000000
vt 0.394219 0.359375
vt 0.215349 0.453750
vt 0.386406 0.656250
vt 0.386406 0.697931
vt 0.817969 0.796875
vt 0.913241 1.000000
vt 0.375000 0.820312
vt 0.104637 0.820312
vt 0.000000 0.907896
vt 0.103205 0.995313
vt 0.437500 0.931563
vt 0.004248 0.968750
vt 0.015894 0.947188
vt 0.000000 0.724232
vt 0.000000 0.724916
vt 0.104637 0.812500
vt 0.375000 0.637500
vt 0.912525 0.968750
vt 0.570312 0.804688
vt 0.793750 0.875000
vt 0.882812 0.421875
vt 0.793750 0.835938
vt 0.882812 0.382812
vt 0.250000 0.475000
vt 0.257812 0.618750
vt 0.709891 0.343750
vt 0.858933 0.937500
vt 0.131766 0.335938
vt 0.858933 0.906250
vt 0.733933 0.572406
vt 0.516067 0.560406
vt 0.772391 0.765625
vt 0.062357 1.000000
vt 0.772391 0.734375
vt 0.062357 0.656250
vt 0.249857 0.267719
vt 0.257955 0.396344
s 1
usemtl m_b26793c3-6362-ee3e-dd83-67857b9125ac
f 1/1/1 2/2/1 3/3/1
f 3/4/2 4/5/2 5/6/2
f 6/7/3 1/8/3 7/9/3
f 8/10/4 9/11/4 5/12/4
f 10/13/1 11/14/1 12/15/1
f 8/16/5 1/17/5 13/18/5
f 14/19/3 5/20/3 15/21/3
f 11/22/6 10/23/6 9/24/6
f 16/25/7 17/26/7 13/27/7
f 18/28/5 12/29/5 17/30/5
f 10/31/2 19/32/2 7/33/2
f 20/34/4 21/35/4 17/36/4
f 22/37/6 23/38/6 3/39/6
f 4/40/8 22/41/8 21/42/8
f 24/43/1 26/44/1 25/45/1
f 27/46/5 28/47/5 26/48/5
f 29/49/6 27/50/6 30/51/6
f 31/52/9 32/53/9 30/54/9
f 30/55/1 31/56/1 33/57/1
f 29/58/10 34/59/10 33/60/10
f 35/61/6 25/62/6 28/63/6
f 36/64/2 25/65/2 37/66/2
f 29/67/11 37/68/11 35/69/11
f 38/70/4 40/71/4 39/72/4
f 41/73/2 42/74/2 40/75/2
f 43/76/1 44/77/1 42/78/1
f 45/79/5 39/80/5 44/81/5
f 42/82/3 40/83/3 39/84/3
f 41/85/3 45/86/3 43/87/3
f 46/88/4 48/89/4 47/90/4
f 49/91/2 50/92/2 48/93/2
f 51/94/1 52/95/1 50/96/1
f 53/97/5 47/98/5 52/99/5
f 50/100/3 48/101/3 47/102/3
f 49/103/3 53/104/3 51/105/3
f 54/106/4 56/107/4 55/108/4
f 57/109/2 58/110/2 56/111/2
f 59/112/1 60/113/1 58/114/1
f 61/115/5 55/116/5 60/117/5
f 58/118/3 56/119/3 55/120/3
f 57/121/3 61/122/3 59/123/3
f 1/1/1 3/3/1 7/124/1
f 3/4/2 9/125/2 7/33/2
f 5/6/2 4/5/2 15/126/2
f 3/4/2 5/6/2 9/125/2
f 4/5/2 3/4/2 23/127/2
f 6/7/3 7/9/3 16/128/3
f 8/10/4 5/12/4 14/129/4
f 10/13/1 12/15/1 15/130/1
f 1/17/5 14/131/5 2/132/5
f 8/16/5 13/18/5 11/133/5
f 1/17/5 8/16/5 14/131/5
f 13/18/5 1/17/5 6/134/5
f 14/19/3 15/21/3 12/135/3
f 11/22/6 9/24/6 8/136/6
f 17/26/7 16/25/7 19/137/7
f 16/25/7 13/27/7 6/138/7
f 2/132/5 18/28/5 22/139/5
f 18/28/5 17/30/5 21/140/5
f 17/30/5 11/133/5 13/18/5
f 12/29/5 2/132/5 14/131/5
f 17/30/5 12/29/5 11/133/5
f 12/29/5 18/28/5 2/132/5
f 19/32/2 4/5/2 20/141/2
f 4/5/2 10/31/2 15/126/2
f 10/31/2 7/33/2 9/125/2
f 7/33/2 19/32/2 16/142/2
f 19/32/2 10/31/2 4/5/2
f 20/34/4 17/36/4 19/143/4
f 22/37/6 3/39/6 2/144/6
f 22/41/8 4/40/8 23/145/8
f 4/40/8 21/42/8 20/146/8
f 21/140/5 22/139/5 18/28/5
f 24/43/1 27/147/1 26/44/1
f 27/46/5 32/148/5 28/47/5
f 27/50/3 24/149/3 36/150/3
f 29/49/6 30/51/6 34/151/6
f 27/50/3 36/150/3 29/49/3
f 30/51/3 32/152/3 27/50/3
f 31/52/9 28/153/9 32/53/9
f 30/55/1 33/57/1 34/154/1
f 29/58/10 33/60/10 35/155/10
f 31/156/3 35/61/3 33/157/3
f 35/61/6 37/158/6 25/62/6
f 25/62/6 26/159/6 28/63/6
f 28/63/3 35/61/3 31/156/3
f 36/64/2 24/160/2 25/65/2
f 29/67/11 36/161/11 37/68/11
f 38/70/4 41/162/4 40/71/4
f 41/73/2 43/163/2 42/74/2
f 43/76/1 45/164/1 44/77/1
f 45/79/5 38/165/5 39/80/5
f 42/82/3 39/84/3 44/166/3
f 41/85/3 38/167/3 45/86/3
f 46/88/4 49/168/4 48/89/4
f 49/91/2 51/169/2 50/92/2
f 51/94/1 53/170/1 52/95/1
f 53/97/5 46/171/5 47/98/5
f 50/100/3 47/102/3 52/172/3
f 49/103/3 46/173/3 53/104/3
f 54/106/4 57/174/4 56/107/4
f 57/109/2 59/175/2 58/110/2
f 59/112/1 61/176/1 60/113/1
f 61/115/5 54/177/5 55/116/5
f 58/118/3 55/120/3 60/178/3
f 57/121/3 54/179/3 61/122/3
