# Blender 4.4.1
# www.blender.org
mtllib cp.mtl
o Cube.005
v 0.120000 3.020537 -1.275801
v 0.120000 3.082543 -1.650708
v -0.120000 3.020537 -1.275801
v -0.120000 3.082543 -1.650708
v -0.250000 0.554682 -2.227179
v -0.250000 2.974681 -2.226386
v 0.250000 0.554682 -2.227179
v 0.250000 2.974681 -2.226386
v 0.250000 0.901559 -1.857179
v -0.250000 0.901559 -1.857179
v 0.250000 2.627804 -1.857179
v -0.250000 2.627804 -1.857179
v -0.250000 1.764681 -2.222336
v 0.250000 1.764681 -2.223923
v 0.250000 1.764681 -1.862021
v -0.250000 1.764681 -1.862021
v 0.120000 2.974681 -1.668548
v -0.120000 2.974681 -1.668548
v -0.120000 2.974681 -1.283385
v 0.120000 2.974681 -1.283385
v 0.761140 3.305986 -0.762696
v 1.000000 0.205986 -1.000000
v 0.761140 3.305986 0.759584
v 1.000000 0.205986 1.000000
v -0.761140 3.305986 -0.762696
v -1.000000 0.205986 -1.000000
v -0.761140 3.305986 0.759584
v -1.000000 0.205986 1.000000
v 0.000000 0.205986 -1.334117
v 0.000000 3.305986 1.018913
v 0.000000 0.205986 1.340711
v 0.000000 3.305986 -1.017006
v -1.337414 0.205986 -0.022837
v 1.017959 3.305986 -0.018938
v -1.017959 3.305986 -0.018938
v 1.337414 0.205986 -0.022837
v 0.000000 0.205986 -0.019540
v 0.000000 3.305986 -0.016428
v 0.920913 2.109064 -0.921428
v -0.920913 2.109064 0.920398
v 0.920913 2.109064 0.920398
v -0.920913 2.109064 -0.921428
v 0.000000 2.109064 -1.229121
v 0.000000 2.109064 1.234163
v 1.231642 2.109064 -0.021546
v -1.231642 2.109064 -0.021546
v -0.412092 3.109450 1.420557
v -0.412092 3.109450 0.926262
v 0.412092 3.109450 1.420557
v 0.412092 3.109450 0.926262
v 0.000000 3.113943 1.588623
v 0.391601 3.079271 0.926262
v 0.019305 2.530944 1.151716
v 0.000000 3.004835 1.073071
v 0.381064 3.099234 0.926262
v 0.000000 2.529699 1.158517
v -0.019305 2.530944 1.151716
v -0.391601 3.079271 0.926262
v -0.381064 3.099234 0.926262
v -0.250000 2.974681 -0.992190
v -0.202004 2.974681 -1.008225
v 0.000000 2.974681 -1.075719
v 0.250000 2.974681 -0.992189
v 0.250000 2.627804 -1.053662
v -0.250000 2.627804 -1.053662
v 0.000000 2.627804 -1.137191
v -0.250000 0.554682 -1.231350
v -0.250000 0.901559 -1.212212
v 0.000000 0.554682 -1.314879
v 0.250000 0.554682 -1.231350
v 0.000000 0.901559 -1.295741
v 0.250000 0.901559 -1.212212
v 1.000000 0.140000 -1.000000
v 1.000000 -0.140000 -1.000000
v 1.000000 0.140000 1.000000
v 1.000000 -0.140000 1.000000
v -1.000000 0.140000 -1.000000
v -1.000000 -0.140000 -1.000000
v -1.000000 0.140000 1.000000
v -1.000000 -0.140000 1.000000
v 0.000000 -0.140000 -1.334117
v 0.000000 0.140000 1.340711
v 0.000000 -0.140000 1.340711
v 0.000000 0.140000 -1.334117
v -1.337414 -0.140000 -0.022837
v 1.337414 0.140000 -0.022837
v -1.337414 0.140000 -0.022837
v 1.337414 -0.140000 -0.022837
v 0.000000 -0.140000 -0.019540
v 0.000000 0.140000 -0.019540
v 0.512125 3.629049 -0.513703
v 0.754377 3.349049 -0.754377
v 0.512125 3.629049 0.510548
v 0.754377 3.349049 0.754377
v -0.512125 3.629049 -0.513703
v -0.754377 3.349049 -0.754377
v -0.512125 3.629049 0.510548
v -0.754377 3.349049 0.754377
v 0.000000 3.349049 -1.006427
v 0.000000 3.629049 0.685034
v 0.000000 3.349049 1.011402
v 0.000000 3.629049 -0.684813
v -1.008915 3.349049 -0.017227
v 0.684924 3.629049 -0.010549
v -0.684924 3.629049 -0.010549
v 1.008915 3.349049 -0.017227
v 0.000000 3.349049 -0.014740
v 0.000000 3.629049 -0.017032
v -0.309858 3.935054 0.347997
v -0.512125 3.935054 -0.513703
v 0.000000 3.935054 -0.684813
v 0.512125 3.935054 -0.513703
v 0.309858 3.935054 0.347997
v 0.000000 3.935054 0.342761
vn -0.0000 0.9866 0.1632
vn -0.0032 -0.0033 -1.0000
vn 1.0000 -0.0000 -0.0000
vn -0.0000 -1.0000 -0.0000
vn -0.0000 1.0000 -0.0000
vn -0.0000 -0.0056 1.0000
vn -0.0000 0.0027 -1.0000
vn -0.0000 0.0056 1.0000
vn -1.0000 -0.0000 -0.0000
vn -0.0000 0.1632 -0.9866
vn -0.0000 -0.1632 0.9866
vn -0.3179 0.1678 0.9331
vn -0.9319 0.1671 -0.3218
vn 0.9364 0.1665 0.3089
vn 0.3125 0.1657 -0.9353
vn -0.3125 0.1658 -0.9353
vn 0.3179 0.1678 0.9331
vn 0.9319 0.1671 -0.3218
vn -0.9364 0.1665 0.3089
vn -0.9484 0.0525 0.3128
vn 0.9439 0.0527 -0.3259
vn 0.3221 0.0529 0.9452
vn -0.3165 0.0523 -0.9472
vn 0.3165 0.0523 -0.9472
vn 0.9484 0.0525 0.3128
vn -0.9439 0.0527 -0.3259
vn -0.3221 0.0529 0.9452
vn -0.0000 -0.0000 -1.0000
vn -0.3065 -0.5643 0.7666
vn -0.8273 -0.5617 -0.0000
vn 0.0024 0.9998 -0.0208
vn 0.8273 -0.5617 -0.0000
vn -0.0024 0.9998 -0.0208
vn 0.3065 -0.5643 0.7666
vn -0.3225 -0.0000 0.9466
vn -0.9452 -0.0000 -0.3264
vn 0.9497 -0.0000 0.3133
vn 0.3169 -0.0000 -0.9485
vn -0.3169 -0.0000 -0.9485
vn 0.3225 -0.0000 0.9466
vn 0.9452 -0.0000 -0.3264
vn -0.9497 -0.0000 0.3133
vn -0.2166 0.7409 0.6357
vn -0.6364 0.7394 -0.2197
vn 0.6406 0.7382 0.2113
vn 0.2143 0.7367 -0.6414
vn -0.2143 0.7367 -0.6414
vn 0.2166 0.7409 0.6357
vn 0.6364 0.7394 -0.2197
vn -0.6406 0.7382 0.2113
vn -0.0109 -0.7617 0.6478
vn 0.0061 -0.7638 0.6455
vn -0.9458 -0.0000 -0.3248
vn 0.7145 0.6792 0.1677
vn -0.0000 -0.0020 -1.0000
vn -0.0032 0.0040 -1.0000
vn 0.3125 0.1658 -0.9353
vn -0.3127 0.9498 -0.0000
vn -0.3066 0.9312 -0.1971
vn 0.3066 0.9312 -0.1971
vn 0.3127 0.9498 -0.0000
vn -0.6355 0.7406 -0.2183
vn 0.6414 0.7371 0.2127
vn 0.6355 0.7406 -0.2183
vn -0.6414 0.7371 0.2127
vn -0.0061 -0.7638 0.6455
vn 0.0109 -0.7617 0.6478
vn -0.7145 0.6792 0.1677
vn 0.9458 -0.0000 -0.3248
vt 0.559987 0.250589
vt 0.579860 0.302337
vt 0.559987 0.302337
vt 0.869811 0.061750
vt 0.908174 0.187587
vt 0.869811 0.187577
vt 0.647428 0.254638
vt 0.647789 0.130212
vt 0.694153 0.218947
vt 0.577162 0.991220
vt 0.596902 0.871111
vt 0.616642 0.860114
vt 0.521942 0.831397
vt 0.512467 0.804056
vt 0.532207 0.793059
vt 0.429995 0.871568
vt 0.469474 0.779108
vt 0.469474 0.871568
vt 0.351107 0.980772
vt 0.370847 0.885982
vt 0.390587 0.874984
vt 0.019713 0.983461
vt 0.039452 0.909545
vt 0.059192 0.898548
vt 0.869811 0.313469
vt 0.908174 0.313468
vt 0.429995 0.964075
vt 0.469474 0.964075
vt 0.623194 0.315988
vt 0.617946 0.264108
vt 0.630290 0.263284
vt 0.576144 0.332953
vt 0.563893 0.313080
vt 0.576144 0.313079
vt 0.650081 0.321848
vt 0.655329 0.269967
vt 0.655329 0.322198
vt 0.620321 0.347602
vt 0.615206 0.327728
vt 0.620321 0.327728
vt 0.744261 0.802075
vt 0.692165 0.703739
vt 0.749960 0.674229
vt 0.901712 0.416522
vt 0.929481 0.360000
vt 0.957044 0.336297
vt 0.140827 0.138133
vt 0.236879 0.010818
vt 0.257428 0.137403
vt 0.108719 0.533730
vt 0.061449 0.398559
vt 0.140679 0.372188
vt 0.411604 0.140065
vt 0.507430 0.019433
vt 0.527179 0.139373
vt 0.754278 0.375379
vt 0.736216 0.343099
vt 0.802750 0.459678
vt 0.681206 0.341327
vt 0.718150 0.375379
vt 0.718152 0.409786
vt 0.203898 0.426741
vt 0.203898 0.552967
vt 0.843499 0.336297
vt 0.871063 0.360000
vt 0.900272 0.459598
vt 0.804901 0.708764
vt 0.819635 0.805745
vt 0.796521 0.896738
vt 0.156907 0.664260
vt 0.320595 0.019433
vt 0.301125 0.139373
vt 0.014458 0.636077
vt 0.077832 0.689848
vt 0.039693 0.010818
vt 0.018849 0.137403
vt 0.683786 0.891713
vt 0.738754 0.925628
vt 0.140992 0.339052
vt 0.008538 0.338259
vt 0.411449 0.330436
vt 0.291482 0.329685
vt 0.825683 0.651167
vt 0.900272 0.652710
vt 0.663951 0.646641
vt 0.718156 0.579985
vt 0.718157 0.614097
vt 0.754285 0.579985
vt 0.736224 0.461822
vt 0.808464 0.646641
vt 0.536949 0.329685
vt 0.267605 0.338259
vt 0.974861 0.651167
vt 0.588138 0.336535
vt 0.588138 0.344880
vt 0.584209 0.341328
vt 0.931009 0.359184
vt 0.900272 0.416679
vt 0.900272 0.359490
vt 0.559123 0.038675
vt 0.616474 0.075826
vt 0.559123 0.112717
vt 0.613436 0.844611
vt 0.583347 0.757405
vt 0.615886 0.779533
vt 0.558300 0.167623
vt 0.615651 0.130471
vt 0.615651 0.204514
vt 0.592066 0.341328
vt 0.588138 0.336536
vt 0.553259 0.844612
vt 0.550809 0.779533
vt 0.869534 0.359184
vt 0.502992 0.882105
vt 0.532207 0.955548
vt 0.492727 0.955548
vt 0.822563 0.097922
vt 0.869811 0.061819
vt 0.869242 0.187829
vt 0.543287 0.533787
vt 0.495021 0.395767
vt 0.575921 0.368840
vt 0.965744 0.089643
vt 0.991313 0.018478
vt 0.992785 0.089643
vt 0.328598 0.854823
vt 0.299396 0.983512
vt 0.298590 0.854824
vt 0.326008 0.533913
vt 0.275541 0.389600
vt 0.360129 0.361445
vt 0.924343 0.140643
vt 0.949643 0.024010
vt 0.950341 0.140644
vt 0.643233 0.921253
vt 0.670660 0.842314
vt 0.673205 0.921254
vt 0.640689 1.000232
vt 0.670660 1.000232
vt 0.427625 0.419688
vt 0.427625 0.554452
vt 0.964272 0.160808
vt 0.991313 0.160808
vt 0.640473 0.424543
vt 0.640473 0.553429
vt 0.592491 0.667067
vt 0.377455 0.673272
vt 0.923644 0.252135
vt 0.949643 0.252136
vt 0.225371 0.643183
vt 0.293032 0.700591
vt 0.329404 0.720200
vt 0.299396 0.720201
vt 0.447040 0.638291
vt 0.511750 0.693195
vt 0.069978 0.850865
vt 0.028450 0.782053
vt 0.068519 0.758446
vt 0.008819 0.750324
vt 0.067843 0.715549
vt 0.132585 0.885316
vt 0.164058 0.950603
vt 0.133606 0.982392
vt 0.915131 0.800797
vt 0.860865 0.706565
vt 0.916286 0.675755
vt 0.271973 0.888417
vt 0.241074 0.818856
vt 0.271798 0.786858
vt 0.376735 0.796817
vt 0.385960 0.737252
vt 0.419143 0.796817
vt 0.385960 0.856382
vt 0.971128 0.707584
vt 0.988862 0.801781
vt 0.127934 0.748444
vt 0.109314 0.780777
vt 0.124039 0.849159
vt 0.107199 0.979423
vt 0.075747 0.938975
vt 0.108502 0.938976
vt 0.969430 0.891436
vt 0.240499 0.953703
vt 0.270951 0.985492
vt 0.859167 0.890417
vt 0.914014 0.921640
vt 0.163484 0.815756
vt 0.132760 0.783758
vt 0.657743 0.727775
vt 0.609685 0.752241
vt 0.610374 0.727775
vt 0.244333 0.791792
vt 0.203896 0.679034
vt 0.228362 0.678345
vt 0.163459 0.791792
vt 0.203896 0.814320
vt 0.609685 0.703309
vt 0.656890 0.673694
vt 0.163363 0.884342
vt 0.196853 0.950461
vt 0.074444 0.898548
vt 0.107199 0.898549
vt 0.241195 0.887442
vt 0.207704 0.953562
vt 0.207704 0.840137
vt 0.579860 0.250589
vt 0.908174 0.061749
vt 0.647428 0.005786
vt 0.803335 0.005716
vt 0.795584 0.041390
vt 0.694082 0.041435
vt 0.693506 0.130191
vt 0.775627 0.218911
vt 0.773224 0.254582
vt 0.616642 0.991220
vt 0.577162 0.860114
vt 0.521942 0.882105
vt 0.502992 0.831397
vt 0.496517 0.795170
vt 0.429995 0.779108
vt 0.390587 0.980772
vt 0.351107 0.874984
vt 0.059192 0.983461
vt 0.019713 0.898548
vt 0.617946 0.316339
vt 0.563893 0.332954
vt 0.642985 0.269143
vt 0.615206 0.347602
vt 0.668860 0.799024
vt 0.968962 0.458178
vt 0.900272 0.368199
vt 0.900272 0.337471
vt 0.928695 0.357979
vt 0.140508 0.011421
vt 0.013385 0.515276
vt 0.411907 0.020005
vt 0.736221 0.410368
vt 0.754280 0.409786
vt 0.791200 0.341327
vt 0.736218 0.375961
vt 0.669666 0.459678
vt 0.721619 0.375491
vt 0.831582 0.458178
vt 0.871848 0.357979
vt 0.898832 0.416522
vt 0.736225 0.580567
vt 0.736225 0.614679
vt 0.736225 0.648969
vt 0.754285 0.614097
vt 0.618149 0.072935
vt 0.615886 0.844609
vt 0.583347 0.825306
vt 0.556625 0.164732
vt 0.550809 0.844609
vt 0.492727 0.793059
vt 0.869811 0.313840
vt 0.742413 0.313783
vt 0.739979 0.277658
vt 0.822491 0.277695
vt 0.823146 0.187809
vt 0.719768 0.097876
vt 0.711918 0.061749
vt 0.445944 0.514943
vt 0.964272 0.018478
vt 0.329404 0.983511
vt 0.224225 0.514211
vt 0.923644 0.024009
vt 0.640689 0.842314
vt 0.015890 0.850865
vt 0.841394 0.800419
vt 0.354208 0.756380
vt 0.354208 0.837254
vt 0.074444 0.979422
vt 0.656890 0.781856
vt 0.179430 0.678345
vt 0.196853 0.837036
s 0
usemtl Material.002
f 3/1/1 2/2/1 4/3/1
f 6/4/2 14/5/2 13/6/2
f 7/7/3 14/8/3 9/9/3
f 7/10/4 69/11/4 67/12/4
f 20/13/5 62/14/5 63/15/5
f 15/16/6 12/17/6 16/18/6
f 11/19/4 66/20/4 65/21/4
f 10/22/5 71/23/5 72/24/5
f 5/25/7 14/5/7 7/26/7
f 9/27/8 16/18/8 10/28/8
f 19/29/9 4/30/9 18/31/9
f 18/32/10 2/33/10 17/34/10
f 20/35/3 2/36/3 1/37/3
f 20/38/11 3/39/11 19/40/11
f 38/41/5 27/42/5 30/43/5
f 57/44/12 58/45/12 27/46/12
f 46/47/13 25/48/13 42/49/13
f 37/50/4 24/51/4 31/52/4
f 45/53/14 23/54/14 41/55/14
f 63/56/15 32/57/15 39/58/15
f 25/59/16 60/60/16 65/61/16
f 37/50/4 28/62/4 33/63/4
f 23/64/17 52/65/17 44/66/17
f 38/41/5 23/67/5 34/68/5
f 21/69/5 38/41/5 34/68/5
f 26/70/4 37/50/4 33/63/4
f 21/71/18 45/53/18 39/72/18
f 22/73/4 37/50/4 29/74/4
f 27/75/19 46/47/19 40/76/19
f 25/77/5 38/41/5 32/78/5
f 40/76/20 33/79/20 28/80/20
f 39/72/21 36/81/21 22/82/21
f 24/83/22 44/66/22 31/84/22
f 26/85/23 68/86/23 67/87/23
f 72/88/24 43/89/24 22/90/24
f 36/81/25 41/55/25 24/91/25
f 33/79/26 42/49/26 26/92/26
f 44/66/27 28/93/27 31/84/27
f 50/94/28 52/95/28 55/96/28
f 47/97/29 56/98/29 51/99/29
f 47/100/30 58/101/30 57/102/30
f 55/103/31 51/104/31 49/105/31
f 52/106/32 49/107/32 53/108/32
f 59/109/28 58/95/28 48/110/28
f 59/111/33 47/112/33 51/104/33
f 56/98/34 49/113/34 51/99/34
f 18/114/5 8/115/5 6/116/5
f 12/117/9 6/118/9 13/119/9
f 90/120/5 79/121/5 82/122/5
f 82/123/35 80/124/35 83/125/35
f 87/126/36 78/127/36 85/128/36
f 89/129/4 76/130/4 83/131/4
f 86/132/37 76/133/37 88/134/37
f 84/135/38 74/136/38 81/137/38
f 77/138/39 81/137/39 78/139/39
f 89/129/4 80/140/4 85/141/4
f 75/142/40 83/125/40 76/143/40
f 90/120/5 75/144/5 86/145/5
f 73/146/5 90/120/5 86/145/5
f 78/147/4 89/129/4 85/141/4
f 73/148/41 88/134/41 74/149/41
f 74/150/4 89/129/4 81/151/4
f 79/152/42 85/128/42 80/153/42
f 77/154/5 90/120/5 84/155/5
f 108/156/5 97/157/5 100/158/5
f 100/158/43 98/159/43 101/160/43
f 103/161/44 95/162/44 96/163/44
f 107/164/4 94/165/4 101/166/4
f 106/167/45 93/168/45 94/169/45
f 102/170/46 92/171/46 99/172/46
f 96/173/47 102/170/47 99/172/47
f 107/164/4 98/174/4 103/175/4
f 94/176/48 100/158/48 101/160/48
f 108/156/5 93/177/5 104/178/5
f 95/179/39 111/180/39 102/181/39
f 96/182/4 107/164/4 103/175/4
f 91/183/49 106/167/49 92/184/49
f 92/185/4 107/164/4 99/186/4
f 97/187/50 103/161/50 98/188/50
f 108/189/51 113/190/51 114/191/51
f 112/192/5 114/193/5 113/194/5
f 110/195/5 114/193/5 111/196/5
f 108/189/52 109/197/52 105/198/52
f 105/199/53 110/200/53 95/162/53
f 102/181/38 112/201/38 91/202/38
f 104/203/54 112/204/54 113/205/54
f 3/1/1 1/206/1 2/2/1
f 6/4/55 8/207/55 14/5/55
f 8/208/3 63/209/3 64/210/3
f 8/208/3 64/210/3 11/211/3
f 14/8/3 8/208/3 11/211/3
f 14/8/3 11/211/3 15/212/3
f 72/213/3 70/214/3 7/7/3
f 14/8/3 15/212/3 9/9/3
f 9/9/3 72/213/3 7/7/3
f 67/12/4 5/215/4 7/10/4
f 7/10/4 70/216/4 69/11/4
f 63/15/5 8/115/5 17/217/5
f 20/13/5 19/218/5 61/219/5
f 63/15/5 17/217/5 20/13/5
f 20/13/5 61/219/5 62/14/5
f 15/16/6 11/220/6 12/17/6
f 65/21/4 12/221/4 11/19/4
f 11/19/4 64/222/4 66/20/4
f 72/24/5 9/223/5 10/22/5
f 10/22/5 68/224/5 71/23/5
f 5/25/56 13/6/56 14/5/56
f 9/27/8 15/16/8 16/18/8
f 19/29/9 3/225/9 4/30/9
f 18/32/10 4/226/10 2/33/10
f 20/35/3 17/227/3 2/36/3
f 20/38/11 1/228/11 3/39/11
f 38/41/5 35/229/5 27/42/5
f 40/230/12 44/66/12 56/98/12
f 40/230/12 56/98/12 57/44/12
f 54/231/12 30/232/12 27/46/12
f 59/233/12 54/231/12 27/46/12
f 27/46/12 40/230/12 57/44/12
f 58/45/12 59/233/12 27/46/12
f 46/47/13 35/234/13 25/48/13
f 37/50/4 36/235/4 24/51/4
f 45/53/14 34/236/14 23/54/14
f 39/58/57 43/89/57 66/237/57
f 39/58/57 66/237/57 64/238/57
f 32/57/57 21/239/57 39/58/57
f 63/56/57 62/240/57 32/57/57
f 39/58/57 64/238/57 63/56/57
f 43/89/16 42/241/16 25/59/16
f 25/59/16 32/57/16 62/240/16
f 25/59/16 62/240/16 61/242/16
f 65/61/16 66/237/16 43/89/16
f 25/59/16 61/242/16 60/60/16
f 65/61/16 43/89/16 25/59/16
f 37/50/4 31/52/4 28/62/4
f 44/66/17 41/243/17 23/64/17
f 23/64/17 30/232/17 54/231/17
f 23/64/17 54/231/17 55/244/17
f 53/245/17 56/98/17 44/66/17
f 23/64/17 55/244/17 52/65/17
f 52/65/17 53/245/17 44/66/17
f 38/41/5 30/43/5 23/67/5
f 21/69/5 32/78/5 38/41/5
f 26/70/4 29/74/4 37/50/4
f 21/71/18 34/236/18 45/53/18
f 22/73/4 36/235/4 37/50/4
f 27/75/19 35/234/19 46/47/19
f 25/77/5 35/229/5 38/41/5
f 40/76/20 46/47/20 33/79/20
f 39/72/21 45/53/21 36/81/21
f 24/83/22 41/243/22 44/66/22
f 26/85/23 42/241/23 43/89/23
f 43/89/23 71/246/23 68/86/23
f 67/87/23 69/247/23 29/248/23
f 26/85/23 43/89/23 68/86/23
f 67/87/23 29/248/23 26/85/23
f 22/90/24 29/248/24 69/247/24
f 22/90/24 69/247/24 70/249/24
f 43/89/24 39/58/24 22/90/24
f 72/88/24 71/246/24 43/89/24
f 22/90/24 70/249/24 72/88/24
f 36/81/25 45/53/25 41/55/25
f 33/79/26 46/47/26 42/49/26
f 44/66/27 40/230/27 28/93/27
f 47/97/29 57/44/29 56/98/29
f 47/100/30 48/250/30 58/101/30
f 49/105/58 50/251/58 55/103/58
f 55/103/59 54/252/59 51/104/59
f 52/106/32 50/253/32 49/107/32
f 51/104/60 54/252/60 59/111/60
f 59/111/61 48/254/61 47/112/61
f 56/98/34 53/245/34 49/113/34
f 6/116/5 60/255/5 61/219/5
f 61/219/5 19/218/5 18/114/5
f 18/114/5 17/217/5 8/115/5
f 6/116/5 61/219/5 18/114/5
f 5/256/9 67/257/9 68/258/9
f 5/256/9 68/258/9 10/259/9
f 13/119/9 5/256/9 10/259/9
f 13/119/9 10/259/9 16/260/9
f 65/261/9 60/262/9 6/118/9
f 13/119/9 16/260/9 12/117/9
f 12/117/9 65/261/9 6/118/9
f 90/120/5 87/263/5 79/121/5
f 82/123/35 79/264/35 80/124/35
f 87/126/36 77/265/36 78/127/36
f 89/129/4 88/266/4 76/130/4
f 86/132/37 75/267/37 76/133/37
f 84/135/38 73/268/38 74/136/38
f 77/138/39 84/135/39 81/137/39
f 89/129/4 83/131/4 80/140/4
f 75/142/40 82/123/40 83/125/40
f 90/120/5 82/122/5 75/144/5
f 73/146/5 84/155/5 90/120/5
f 78/147/4 81/151/4 89/129/4
f 73/148/41 86/132/41 88/134/41
f 74/150/4 88/266/4 89/129/4
f 79/152/42 87/126/42 85/128/42
f 77/154/5 87/263/5 90/120/5
f 108/156/5 105/269/5 97/157/5
f 100/158/43 97/157/43 98/159/43
f 103/161/62 105/199/62 95/162/62
f 107/164/4 106/270/4 94/165/4
f 106/167/63 104/203/63 93/168/63
f 102/170/46 91/271/46 92/171/46
f 96/173/47 95/272/47 102/170/47
f 107/164/4 101/166/4 98/174/4
f 94/176/48 93/177/48 100/158/48
f 108/156/5 100/158/5 93/177/5
f 95/179/39 110/273/39 111/180/39
f 96/182/4 99/186/4 107/164/4
f 91/183/64 104/203/64 106/167/64
f 92/185/4 106/270/4 107/164/4
f 97/187/65 105/199/65 103/161/65
f 108/189/66 104/274/66 113/190/66
f 112/192/5 111/196/5 114/193/5
f 110/195/5 109/275/5 114/193/5
f 108/189/67 114/191/67 109/197/67
f 105/199/68 109/276/68 110/200/68
f 102/181/38 111/180/38 112/201/38
f 104/203/69 91/183/69 112/204/69
