# Blender 4.1.1
# www.blender.org
mtllib Lock_on.mtl
o Plane
v -2.000000 2.000000 -0.000000
v 2.000000 2.000000 -0.000000
v -2.000000 -2.000000 0.000000
v 2.000000 -2.000000 0.000000
v -1.900000 1.900000 -0.000000
v 1.900000 -1.900000 0.000000
v 1.900000 1.900000 -0.000000
v -1.900000 -1.900000 0.000000
vn -0.0000 -0.0000 -1.0000
vt 1.000000 1.000000
vt 0.025000 0.975000
vt 0.975000 0.975000
vt 0.000000 0.000000
vt 1.000000 0.000000
vt 0.025000 0.025000
vt 0.000000 1.000000
vt 0.975000 0.025000
s 0
usemtl Material.001
f 4/1/1 8/2/1 6/3/1
f 1/4/1 2/5/1 5/6/1
f 4/1/1 3/7/1 8/2/1
f 8/2/1 3/7/1 1/4/1
f 2/5/1 4/1/1 6/3/1
f 2/5/1 6/3/1 7/8/1
f 5/6/1 8/2/1 1/4/1
f 2/5/1 7/8/1 5/6/1
