# Blender 4.1.1
# www.blender.org
mtllib mg_head.mtl
o Cube.001
v -0.402050 0.190880 -5.205623
v -0.402050 0.190881 2.840538
v -0.402050 -0.177637 -5.205623
v -0.402050 -0.177637 2.840538
v -0.770568 0.190880 -5.205623
v -0.770568 0.190881 2.840538
v -0.770568 -0.177637 -5.205623
v -0.770568 -0.177637 2.840538
v 0.593029 0.880399 2.198703
v 0.593029 0.880399 2.426645
v 0.593029 -0.867155 2.198704
v 0.593029 -0.867155 2.426645
v -0.591620 0.880399 2.198703
v -0.591620 0.880399 2.426645
v -0.591620 -0.867155 2.198704
v -0.591620 -0.867155 2.426645
v 0.950462 0.006622 2.198703
v 0.950462 0.006622 2.426645
v -0.949053 0.006622 2.198703
v -0.949053 0.006622 2.426645
v 0.821622 0.190880 -5.205623
v 0.821622 0.190881 2.840538
v 0.821622 -0.177637 -5.205623
v 0.821622 -0.177637 2.840538
v 0.453104 0.190880 -5.205623
v 0.453104 0.190881 2.840538
v 0.453104 -0.177637 -5.205623
v 0.453104 -0.177637 2.840538
v 0.267508 0.787111 -5.205623
v 0.267508 0.787111 2.840538
v 0.585823 0.601421 -5.205623
v 0.585823 0.601421 2.840538
v 0.081818 0.468796 -5.205623
v 0.081819 0.468796 2.840538
v 0.400133 0.283106 -5.205623
v 0.400134 0.283106 2.840538
v -0.349080 -0.269863 -5.205622
v -0.349079 -0.269862 2.840539
v -0.030765 -0.455552 -5.205622
v -0.030764 -0.455552 2.840539
v -0.534770 -0.588178 -5.205622
v -0.534769 -0.588177 2.840539
v -0.216454 -0.773867 -5.205622
v -0.216454 -0.773867 2.840539
v 0.585955 -0.588054 -5.205622
v 0.585954 -0.588054 2.840539
v 0.267681 -0.773814 -5.205622
v 0.267680 -0.773814 2.840539
v 0.400195 -0.269780 -5.205622
v 0.400194 -0.269780 2.840539
v 0.081921 -0.455540 -5.205622
v 0.081920 -0.455540 2.840539
v -0.030866 0.468783 -5.205623
v -0.030867 0.468784 2.840538
v -0.349140 0.283023 -5.205623
v -0.349141 0.283023 2.840538
v -0.216626 0.787057 -5.205623
v -0.216627 0.787058 2.840538
v -0.534900 0.601297 -5.205623
v -0.534901 0.601297 2.840538
v 0.593029 0.880399 1.216611
v 0.593029 0.880399 1.444553
v 0.593029 -0.867155 1.216611
v 0.593029 -0.867155 1.444553
v -0.591620 0.880399 1.216611
v -0.591620 0.880399 1.444553
v -0.591620 -0.867155 1.216611
v -0.591620 -0.867155 1.444553
v 0.950462 0.006622 1.216611
v 0.950462 0.006622 1.444553
v -0.949053 0.006622 1.216611
v -0.949053 0.006622 1.444553
v 0.593029 0.880399 0.673568
v 0.593029 0.880399 0.901510
v 0.593029 -0.867155 0.673568
v 0.593029 -0.867155 0.901510
v -0.591620 0.880399 0.673568
v -0.591620 0.880399 0.901510
v -0.591620 -0.867155 0.673568
v -0.591620 -0.867155 0.901510
v 0.950462 0.006622 0.673568
v 0.950462 0.006622 0.901510
v -0.949053 0.006622 0.673568
v -0.949053 0.006622 0.901510
v 0.593029 0.880399 -2.439422
v 0.593029 0.880399 -1.939422
v 0.593029 -0.867155 -2.439422
v 0.593029 -0.867155 -1.939422
v -0.591620 0.880399 -2.439422
v -0.591620 0.880399 -1.939422
v -0.591620 -0.867155 -2.439422
v -0.591620 -0.867155 -1.939422
v 0.950462 0.006622 -2.439422
v 0.950462 0.006622 -1.939422
v -0.949053 0.006622 -2.439422
v -0.949053 0.006622 -1.939422
vn 1.0000 -0.0000 -0.0000
vn -0.0000 -1.0000 -0.0000
vn -1.0000 -0.0000 -0.0000
vn -0.0000 1.0000 -0.0000
vn -0.0000 -0.0000 -1.0000
vn -0.0000 -0.0000 1.0000
vn 0.9256 -0.3786 -0.0000
vn -0.9256 0.3786 -0.0000
vn -0.9256 -0.3786 -0.0000
vn 0.9256 0.3786 -0.0000
vn 0.5039 0.8638 -0.0000
vn 0.8638 -0.5039 -0.0000
vn -0.5039 -0.8638 -0.0000
vn -0.8638 0.5039 -0.0000
vn 0.5041 -0.8637 -0.0000
vn -0.8637 -0.5041 -0.0000
vn -0.5041 0.8637 -0.0000
vn 0.8637 0.5041 -0.0000
vt 0.794707 0.000266
vt 0.743583 0.051390
vt 0.743583 0.000266
vt 0.794707 0.051390
vt 0.743583 0.102514
vt 0.794707 0.153638
vt 0.743583 0.153638
vt 0.743583 0.204762
vt 0.692459 0.153638
vt 0.692459 0.102514
vt 0.845831 0.102514
vt 0.794707 0.102514
vt 0.230642 0.057860
vt 0.115454 0.115454
vt 0.115454 0.057860
vt 0.230642 0.115454
vt 0.115454 0.230642
vt 0.115454 0.288236
vt 0.230642 0.345831
vt 0.115454 0.345831
vt 0.115454 0.461019
vt 0.000266 0.345831
vt 0.000266 0.288236
vt 0.345831 0.288236
vt 0.230642 0.288236
vt 0.345831 0.230642
vt 0.230642 0.230642
vt 0.000266 0.230642
vt 0.230642 0.000266
vt 0.115454 0.000266
vt 0.794707 0.205293
vt 0.743583 0.256417
vt 0.743583 0.205293
vt 0.794707 0.256417
vt 0.743583 0.307541
vt 0.794707 0.358665
vt 0.743583 0.358665
vt 0.743583 0.409789
vt 0.692459 0.358665
vt 0.692459 0.307541
vt 0.845831 0.307541
vt 0.794707 0.307541
vt 0.794707 0.410321
vt 0.743583 0.461445
vt 0.743583 0.410321
vt 0.794707 0.461445
vt 0.743583 0.512569
vt 0.794707 0.563693
vt 0.743583 0.563693
vt 0.743583 0.614817
vt 0.692459 0.563693
vt 0.692459 0.512569
vt 0.845831 0.512569
vt 0.794707 0.512569
vt 0.794707 0.615348
vt 0.743583 0.666472
vt 0.743583 0.615348
vt 0.794707 0.666472
vt 0.743583 0.717596
vt 0.794707 0.717596
vt 0.743583 0.768720
vt 0.794707 0.768720
vt 0.743583 0.819844
vt 0.692459 0.717596
vt 0.692459 0.768720
vt 0.845831 0.717596
vt 0.948610 0.000266
vt 0.897486 0.051390
vt 0.897486 0.000266
vt 0.948610 0.051390
vt 0.897486 0.102514
vt 0.948610 0.102514
vt 0.897486 0.153638
vt 0.948610 0.153638
vt 0.897486 0.204762
vt 0.846362 0.153638
vt 0.846362 0.102514
vt 0.999734 0.153638
vt 0.948610 0.205293
vt 0.897486 0.256417
vt 0.897486 0.205293
vt 0.948610 0.256417
vt 0.897486 0.307541
vt 0.948610 0.307541
vt 0.897486 0.358665
vt 0.948610 0.358665
vt 0.897486 0.409789
vt 0.846362 0.358665
vt 0.846362 0.307541
vt 0.999734 0.358665
vt 0.576739 0.057860
vt 0.461551 0.115454
vt 0.461551 0.057860
vt 0.576739 0.115454
vt 0.461551 0.230642
vt 0.576739 0.288236
vt 0.461551 0.345831
vt 0.461551 0.288236
vt 0.576739 0.345831
vt 0.461551 0.461019
vt 0.346362 0.345831
vt 0.346362 0.288236
vt 0.691927 0.288236
vt 0.691927 0.230642
vt 0.576739 0.230642
vt 0.346362 0.230642
vt 0.576739 0.000266
vt 0.461551 0.000266
vt 0.230642 0.519145
vt 0.115454 0.576739
vt 0.115454 0.519145
vt 0.230642 0.576739
vt 0.115454 0.691927
vt 0.230642 0.749521
vt 0.115454 0.807115
vt 0.115454 0.749521
vt 0.230642 0.807115
vt 0.115454 0.922303
vt 0.000266 0.807115
vt 0.000266 0.749521
vt 0.345831 0.749521
vt 0.345831 0.691927
vt 0.230642 0.691927
vt 0.000266 0.691927
vt 0.230642 0.461551
vt 0.115454 0.461551
vt 0.576739 0.519145
vt 0.461551 0.576739
vt 0.461551 0.519145
vt 0.576739 0.576739
vt 0.461551 0.691927
vt 0.576739 0.749521
vt 0.461551 0.807115
vt 0.461551 0.749521
vt 0.576739 0.807115
vt 0.461551 0.922303
vt 0.346362 0.807115
vt 0.346362 0.749521
vt 0.691927 0.749521
vt 0.691927 0.691927
vt 0.576739 0.691927
vt 0.346362 0.691927
vt 0.576739 0.461551
vt 0.461551 0.461551
vt 0.794707 0.204762
vt 0.845831 0.153638
vt 0.230642 0.461019
vt 0.345831 0.345831
vt 0.794707 0.409789
vt 0.845831 0.358665
vt 0.794707 0.614817
vt 0.845831 0.563693
vt 0.794707 0.819844
vt 0.845831 0.768720
vt 0.948610 0.204762
vt 0.999734 0.102514
vt 0.948610 0.409789
vt 0.999734 0.307541
vt 0.576739 0.461019
vt 0.691927 0.345831
vt 0.230642 0.922303
vt 0.345831 0.807115
vt 0.576739 0.922303
vt 0.691927 0.807115
s 0
usemtl Material.002
f 2/1/1 3/2/1 1/3/1
f 4/4/2 7/5/2 3/2/2
f 7/5/3 6/6/3 5/7/3
f 6/6/4 1/8/4 5/7/4
f 7/5/5 1/9/5 3/10/5
f 4/11/6 6/6/6 8/12/6
f 18/13/7 11/14/7 17/15/7
f 12/16/2 15/17/2 11/14/2
f 19/18/8 14/19/8 13/20/8
f 14/19/4 9/21/4 13/20/4
f 19/18/5 9/22/5 17/23/5
f 18/24/6 14/19/6 20/25/6
f 12/26/6 20/25/6 16/27/6
f 15/17/5 17/23/5 11/28/5
f 16/27/9 19/18/9 15/17/9
f 10/29/10 17/15/10 9/30/10
f 22/31/1 23/32/1 21/33/1
f 24/34/2 27/35/2 23/32/2
f 27/35/3 26/36/3 25/37/3
f 26/36/4 21/38/4 25/37/4
f 27/35/5 21/39/5 23/40/5
f 24/41/6 26/36/6 28/42/6
f 30/43/11 31/44/11 29/45/11
f 32/46/12 35/47/12 31/44/12
f 35/47/13 34/48/13 33/49/13
f 34/48/14 29/50/14 33/49/14
f 35/47/5 29/51/5 31/52/5
f 32/53/6 34/48/6 36/54/6
f 38/55/11 39/56/11 37/57/11
f 40/58/12 43/59/12 39/56/12
f 44/60/13 41/61/13 43/59/13
f 42/62/14 37/63/14 41/61/14
f 39/64/5 41/61/5 37/65/5
f 40/66/6 42/62/6 44/60/6
f 46/67/15 47/68/15 45/69/15
f 48/70/16 51/71/16 47/68/16
f 52/72/17 49/73/17 51/71/17
f 50/74/18 45/75/18 49/73/18
f 51/71/5 45/76/5 47/77/5
f 52/72/6 46/78/6 50/74/6
f 54/79/15 55/80/15 53/81/15
f 56/82/16 59/83/16 55/80/16
f 60/84/17 57/85/17 59/83/17
f 58/86/18 53/87/18 57/85/18
f 59/83/5 53/88/5 55/89/5
f 60/84/6 54/90/6 58/86/6
f 70/91/7 63/92/7 69/93/7
f 64/94/2 67/95/2 63/92/2
f 72/96/8 65/97/8 71/98/8
f 66/99/4 61/100/4 65/97/4
f 71/98/5 61/101/5 69/102/5
f 70/103/6 66/99/6 72/96/6
f 64/104/6 72/96/6 68/105/6
f 67/95/5 69/102/5 63/106/5
f 68/105/9 71/98/9 67/95/9
f 62/107/10 69/93/10 61/108/10
f 82/109/7 75/110/7 81/111/7
f 76/112/2 79/113/2 75/110/2
f 84/114/8 77/115/8 83/116/8
f 78/117/4 73/118/4 77/115/4
f 83/116/5 73/119/5 81/120/5
f 82/121/6 78/117/6 84/114/6
f 76/122/6 84/114/6 80/123/6
f 79/113/5 81/120/5 75/124/5
f 80/123/9 83/116/9 79/113/9
f 74/125/10 81/111/10 73/126/10
f 94/127/7 87/128/7 93/129/7
f 88/130/2 91/131/2 87/128/2
f 96/132/8 89/133/8 95/134/8
f 90/135/4 85/136/4 89/133/4
f 95/134/5 85/137/5 93/138/5
f 94/139/6 90/135/6 96/132/6
f 88/140/6 96/132/6 92/141/6
f 91/131/5 93/138/5 87/142/5
f 92/141/9 95/134/9 91/131/9
f 86/143/10 93/129/10 85/144/10
f 2/1/1 4/4/1 3/2/1
f 4/4/2 8/12/2 7/5/2
f 7/5/3 8/12/3 6/6/3
f 6/6/4 2/145/4 1/8/4
f 7/5/5 5/7/5 1/9/5
f 4/11/6 2/146/6 6/6/6
f 18/13/7 12/16/7 11/14/7
f 12/16/2 16/27/2 15/17/2
f 19/18/8 20/25/8 14/19/8
f 14/19/4 10/147/4 9/21/4
f 19/18/5 13/20/5 9/22/5
f 18/24/6 10/148/6 14/19/6
f 12/26/6 18/24/6 20/25/6
f 15/17/5 19/18/5 17/23/5
f 16/27/9 20/25/9 19/18/9
f 10/29/10 18/13/10 17/15/10
f 22/31/1 24/34/1 23/32/1
f 24/34/2 28/42/2 27/35/2
f 27/35/3 28/42/3 26/36/3
f 26/36/4 22/149/4 21/38/4
f 27/35/5 25/37/5 21/39/5
f 24/41/6 22/150/6 26/36/6
f 30/43/11 32/46/11 31/44/11
f 32/46/12 36/54/12 35/47/12
f 35/47/13 36/54/13 34/48/13
f 34/48/14 30/151/14 29/50/14
f 35/47/5 33/49/5 29/51/5
f 32/53/6 30/152/6 34/48/6
f 38/55/11 40/58/11 39/56/11
f 40/58/12 44/60/12 43/59/12
f 44/60/13 42/62/13 41/61/13
f 42/62/14 38/153/14 37/63/14
f 39/64/5 43/59/5 41/61/5
f 40/66/6 38/154/6 42/62/6
f 46/67/15 48/70/15 47/68/15
f 48/70/16 52/72/16 51/71/16
f 52/72/17 50/74/17 49/73/17
f 50/74/18 46/155/18 45/75/18
f 51/71/5 49/73/5 45/76/5
f 52/72/6 48/156/6 46/78/6
f 54/79/15 56/82/15 55/80/15
f 56/82/16 60/84/16 59/83/16
f 60/84/17 58/86/17 57/85/17
f 58/86/18 54/157/18 53/87/18
f 59/83/5 57/85/5 53/88/5
f 60/84/6 56/158/6 54/90/6
f 70/91/7 64/94/7 63/92/7
f 64/94/2 68/105/2 67/95/2
f 72/96/8 66/99/8 65/97/8
f 66/99/4 62/159/4 61/100/4
f 71/98/5 65/97/5 61/101/5
f 70/103/6 62/160/6 66/99/6
f 64/104/6 70/103/6 72/96/6
f 67/95/5 71/98/5 69/102/5
f 68/105/9 72/96/9 71/98/9
f 62/107/10 70/91/10 69/93/10
f 82/109/7 76/112/7 75/110/7
f 76/112/2 80/123/2 79/113/2
f 84/114/8 78/117/8 77/115/8
f 78/117/4 74/161/4 73/118/4
f 83/116/5 77/115/5 73/119/5
f 82/121/6 74/162/6 78/117/6
f 76/122/6 82/121/6 84/114/6
f 79/113/5 83/116/5 81/120/5
f 80/123/9 84/114/9 83/116/9
f 74/125/10 82/109/10 81/111/10
f 94/127/7 88/130/7 87/128/7
f 88/130/2 92/141/2 91/131/2
f 96/132/8 90/135/8 89/133/8
f 90/135/4 86/163/4 85/136/4
f 95/134/5 89/133/5 85/137/5
f 94/139/6 86/164/6 90/135/6
f 88/140/6 94/139/6 96/132/6
f 91/131/5 95/134/5 93/138/5
f 92/141/9 96/132/9 95/134/9
f 86/143/10 94/127/10 93/129/10
