# Blender 4.4.1
# www.blender.org
mtllib ssssssssssssobj.mtl
o Cube.005
v 0.323734 5.367928 0.061568
v 0.323734 0.367928 0.061568
v 0.323734 5.367928 3.061568
v 0.323734 0.367928 3.061568
v -2.676266 5.367928 0.061568
v -2.676266 0.367928 0.061568
v -2.676266 5.367928 3.061568
v -2.676266 0.367928 3.061568
v 2.500000 2.500000 -2.500000
v 2.500000 -2.500000 -2.500000
v 2.500000 2.500000 2.500000
v 2.500000 -2.500000 2.500000
v -2.500000 2.500000 -2.500000
v -2.500000 -2.500000 -2.500000
v -2.500000 2.500000 2.500000
v -2.500000 -2.500000 2.500000
v 0.823734 2.970551 -0.706240
v 0.823734 -2.029449 -0.706240
v 0.823734 2.970551 3.293760
v 0.823734 -2.029449 3.293760
v -3.176266 2.970551 -0.706240
v -3.176266 -2.029449 -0.706240
v -3.176266 2.970551 3.293760
v -3.176266 -2.029449 3.293760
v 2.826325 5.268547 -2.487053
v 2.826325 -0.731454 -2.487053
v 2.826325 5.268547 1.512947
v 2.826325 -0.731454 1.512947
v -1.173675 5.268547 -2.487053
v -1.173675 -0.731454 -2.487053
v -1.173675 5.268547 1.512947
v -1.173675 -0.731454 1.512947
v 1.828320 8.247465 -1.870109
v 1.828320 1.247466 -1.870109
v 1.828320 8.247465 2.129891
v 1.828320 1.247466 2.129891
v -2.171680 8.247465 -1.870109
v -2.171680 1.247466 -1.870109
v -2.171680 8.247465 2.129891
v -2.171680 1.247466 2.129891
v 2.239320 1.793425 -3.047837
v 2.239320 -3.706575 -3.047837
v 2.239320 1.793425 0.952163
v 2.239320 -3.706575 0.952163
v -1.760680 1.793425 -3.047837
v -1.760680 -3.706575 -3.047837
v -1.760680 1.793425 0.952163
v -1.760680 -3.706575 0.952163
vn -0.0000 1.0000 -0.0000
vn -0.0000 -0.0000 1.0000
vn -1.0000 -0.0000 -0.0000
vn -0.0000 -1.0000 -0.0000
vn 1.0000 -0.0000 -0.0000
vn -0.0000 -0.0000 -1.0000
vt 0.666529 0.666664
vt 0.555572 0.777622
vt 0.555572 0.666664
vt 0.444614 0.888579
vt 0.444614 0.777622
vt 0.555572 0.444749
vt 0.444614 0.555707
vt 0.444614 0.444749
vt 0.444614 0.666664
vt 0.333657 0.777622
vt 0.333657 0.666664
vt 0.555572 0.555707
vt 0.666436 0.666664
vt 0.555479 0.777622
vt 0.555479 0.666664
vt 0.444521 0.888579
vt 0.444521 0.777622
vt 0.555479 0.444749
vt 0.444521 0.555707
vt 0.444521 0.444749
vt 0.444521 0.666664
vt 0.333564 0.777622
vt 0.333564 0.666664
vt 0.555479 0.555707
vt 0.666426 0.666436
vt 0.555469 0.777393
vt 0.555469 0.666436
vt 0.444512 0.888351
vt 0.444512 0.777393
vt 0.555469 0.444521
vt 0.444512 0.555479
vt 0.444512 0.444521
vt 0.444512 0.666436
vt 0.333554 0.777393
vt 0.333554 0.666436
vt 0.555469 0.555479
vt 0.666436 0.666436
vt 0.555479 0.777393
vt 0.555479 0.666436
vt 0.444521 0.888351
vt 0.444521 0.777393
vt 0.555479 0.444521
vt 0.444521 0.555479
vt 0.444521 0.444521
vt 0.444521 0.666436
vt 0.333564 0.777393
vt 0.333564 0.666436
vt 0.555479 0.555479
vt 0.666306 0.666664
vt 0.555349 0.777622
vt 0.555349 0.666664
vt 0.444392 0.888579
vt 0.444392 0.777622
vt 0.555349 0.444749
vt 0.444392 0.555707
vt 0.444392 0.444749
vt 0.444392 0.666664
vt 0.333434 0.777622
vt 0.333434 0.666664
vt 0.555349 0.555707
vt 0.666517 0.666436
vt 0.555560 0.777393
vt 0.555560 0.666436
vt 0.444603 0.888351
vt 0.444603 0.777393
vt 0.555560 0.444521
vt 0.444603 0.555479
vt 0.444603 0.444521
vt 0.444603 0.666436
vt 0.333645 0.777393
vt 0.333645 0.666436
vt 0.555560 0.555479
vt 0.666529 0.777622
vt 0.555572 0.888579
vt 0.666436 0.777622
vt 0.555479 0.888579
vt 0.666426 0.777393
vt 0.555469 0.888351
vt 0.666436 0.777393
vt 0.555479 0.888351
vt 0.666306 0.777622
vt 0.555349 0.888579
vt 0.666517 0.777393
vt 0.555560 0.888351
s 0
usemtl Material
f 5/1/1 3/2/1 1/3/1
f 3/2/2 8/4/2 4/5/2
f 7/6/3 6/7/3 8/8/3
f 2/9/4 8/10/4 6/11/4
f 1/3/5 4/5/5 2/9/5
f 5/12/6 2/9/6 6/7/6
f 13/13/1 11/14/1 9/15/1
f 11/14/2 16/16/2 12/17/2
f 15/18/3 14/19/3 16/20/3
f 10/21/4 16/22/4 14/23/4
f 9/15/5 12/17/5 10/21/5
f 13/24/6 10/21/6 14/19/6
f 21/25/1 19/26/1 17/27/1
f 19/26/2 24/28/2 20/29/2
f 23/30/3 22/31/3 24/32/3
f 18/33/4 24/34/4 22/35/4
f 17/27/5 20/29/5 18/33/5
f 21/36/6 18/33/6 22/31/6
f 29/37/1 27/38/1 25/39/1
f 27/38/2 32/40/2 28/41/2
f 31/42/3 30/43/3 32/44/3
f 26/45/4 32/46/4 30/47/4
f 25/39/5 28/41/5 26/45/5
f 29/48/6 26/45/6 30/43/6
f 37/49/1 35/50/1 33/51/1
f 35/50/2 40/52/2 36/53/2
f 39/54/3 38/55/3 40/56/3
f 34/57/4 40/58/4 38/59/4
f 33/51/5 36/53/5 34/57/5
f 37/60/6 34/57/6 38/55/6
f 45/61/1 43/62/1 41/63/1
f 43/62/2 48/64/2 44/65/2
f 47/66/3 46/67/3 48/68/3
f 42/69/4 48/70/4 46/71/4
f 41/63/5 44/65/5 42/69/5
f 45/72/6 42/69/6 46/67/6
f 5/1/1 7/73/1 3/2/1
f 3/2/2 7/74/2 8/4/2
f 7/6/3 5/12/3 6/7/3
f 2/9/4 4/5/4 8/10/4
f 1/3/5 3/2/5 4/5/5
f 5/12/6 1/3/6 2/9/6
f 13/13/1 15/75/1 11/14/1
f 11/14/2 15/76/2 16/16/2
f 15/18/3 13/24/3 14/19/3
f 10/21/4 12/17/4 16/22/4
f 9/15/5 11/14/5 12/17/5
f 13/24/6 9/15/6 10/21/6
f 21/25/1 23/77/1 19/26/1
f 19/26/2 23/78/2 24/28/2
f 23/30/3 21/36/3 22/31/3
f 18/33/4 20/29/4 24/34/4
f 17/27/5 19/26/5 20/29/5
f 21/36/6 17/27/6 18/33/6
f 29/37/1 31/79/1 27/38/1
f 27/38/2 31/80/2 32/40/2
f 31/42/3 29/48/3 30/43/3
f 26/45/4 28/41/4 32/46/4
f 25/39/5 27/38/5 28/41/5
f 29/48/6 25/39/6 26/45/6
f 37/49/1 39/81/1 35/50/1
f 35/50/2 39/82/2 40/52/2
f 39/54/3 37/60/3 38/55/3
f 34/57/4 36/53/4 40/58/4
f 33/51/5 35/50/5 36/53/5
f 37/60/6 33/51/6 34/57/6
f 45/61/1 47/83/1 43/62/1
f 43/62/2 47/84/2 48/64/2
f 47/66/3 45/72/3 46/67/3
f 42/69/4 44/65/4 48/70/4
f 41/63/5 43/62/5 44/65/5
f 45/72/6 41/63/6 42/69/6
