# Blender 4.1.1
# www.blender.org
mtllib kumo.mtl
o Cube.002
v -2.005272 0.652439 0.512299
v -2.005272 1.013008 0.512299
v -2.005272 0.652439 0.165797
v -2.005272 1.013008 0.165797
v 2.005272 0.652439 0.512299
v 2.005272 1.013008 0.512299
v 2.005272 0.652439 0.165797
v 2.005272 1.013008 0.165797
v 1.000000 1.358398 -1.000000
v 1.000000 0.478349 -1.000000
v 1.000000 1.358398 1.000000
v 1.000000 0.478349 1.000000
v -1.000000 1.358398 -1.000000
v -1.000000 0.478349 -1.000000
v -1.000000 1.358398 1.000000
v -1.000000 0.478349 1.000000
v -0.457114 0.771653 1.686617
v -0.457114 1.265596 1.686617
v -0.457114 0.771653 0.630029
v -0.457114 1.265596 0.630029
v 0.457114 0.771653 1.686617
v 0.457114 1.265596 1.686617
v 0.457114 0.771653 0.630029
v 0.457114 1.265596 0.630029
v -2.005272 0.652439 -0.303434
v -2.005272 1.013008 -0.303434
v -2.005272 0.652439 -0.649936
v -2.005272 1.013008 -0.649936
v 2.005272 0.652439 -0.303434
v 2.005272 1.013008 -0.303434
v 2.005272 0.652439 -0.649936
v 2.005272 1.013008 -0.649936
vn -1.0000 -0.0000 -0.0000
vn -0.0000 -0.0000 -1.0000
vn 1.0000 -0.0000 -0.0000
vn -0.0000 -0.0000 1.0000
vn -0.0000 -1.0000 -0.0000
vn -0.0000 1.0000 -0.0000
vt 0.250000 0.000173
vt 0.125087 0.125087
vt 0.125087 0.000173
vt 0.250000 0.125087
vt 0.125087 0.250000
vt 0.250000 0.250000
vt 0.125087 0.374913
vt 0.250000 0.374913
vt 0.125087 0.499827
vt 0.000173 0.374913
vt 0.000173 0.250000
vt 0.374913 0.250000
vt 0.750000 0.250000
vt 0.625087 0.374913
vt 0.625087 0.250000
vt 0.500173 0.499827
vt 0.500173 0.374913
vt 0.625087 0.000173
vt 0.500173 0.125087
vt 0.500173 0.000173
vt 0.500173 0.250000
vt 0.375260 0.374913
vt 0.375260 0.250000
vt 0.625087 0.125087
vt 0.250000 0.500173
vt 0.125087 0.625087
vt 0.125087 0.500173
vt 0.250000 0.625087
vt 0.125087 0.750000
vt 0.250000 0.750000
vt 0.125087 0.874913
vt 0.250000 0.874913
vt 0.125087 0.999827
vt 0.000173 0.874913
vt 0.000173 0.750000
vt 0.374913 0.750000
vt 0.625087 0.500173
vt 0.500173 0.625087
vt 0.500173 0.500173
vt 0.625087 0.625087
vt 0.500173 0.750000
vt 0.625087 0.750000
vt 0.500173 0.874913
vt 0.625087 0.874913
vt 0.500173 0.999827
vt 0.375260 0.874913
vt 0.375260 0.750000
vt 0.750000 0.750000
vt 0.250000 0.499827
vt 0.374913 0.374913
vt 0.750000 0.374913
vt 0.625087 0.499827
vt 0.250000 0.999827
vt 0.374913 0.874913
vt 0.625087 0.999827
vt 0.750000 0.874913
s 0
usemtl Material
f 2/1/1 3/2/1 1/3/1
f 4/4/2 7/5/2 3/2/2
f 8/6/3 5/7/3 7/5/3
f 6/8/4 1/9/4 5/7/4
f 7/5/5 1/10/5 3/11/5
f 4/12/6 6/8/6 8/6/6
f 13/13/6 11/14/6 9/15/6
f 11/14/4 16/16/4 12/17/4
f 15/18/1 14/19/1 16/20/1
f 10/21/5 16/22/5 14/23/5
f 9/15/3 12/17/3 10/21/3
f 13/24/2 10/21/2 14/19/2
f 18/25/1 19/26/1 17/27/1
f 20/28/2 23/29/2 19/26/2
f 24/30/3 21/31/3 23/29/3
f 22/32/4 17/33/4 21/31/4
f 23/29/5 17/34/5 19/35/5
f 20/36/6 22/32/6 24/30/6
f 26/37/1 27/38/1 25/39/1
f 28/40/2 31/41/2 27/38/2
f 32/42/3 29/43/3 31/41/3
f 30/44/4 25/45/4 29/43/4
f 31/41/5 25/46/5 27/47/5
f 28/48/6 30/44/6 32/42/6
f 2/1/1 4/4/1 3/2/1
f 4/4/2 8/6/2 7/5/2
f 8/6/3 6/8/3 5/7/3
f 6/8/4 2/49/4 1/9/4
f 7/5/5 5/7/5 1/10/5
f 4/12/6 2/50/6 6/8/6
f 13/13/6 15/51/6 11/14/6
f 11/14/4 15/52/4 16/16/4
f 15/18/1 13/24/1 14/19/1
f 10/21/5 12/17/5 16/22/5
f 9/15/3 11/14/3 12/17/3
f 13/24/2 9/15/2 10/21/2
f 18/25/1 20/28/1 19/26/1
f 20/28/2 24/30/2 23/29/2
f 24/30/3 22/32/3 21/31/3
f 22/32/4 18/53/4 17/33/4
f 23/29/5 21/31/5 17/34/5
f 20/36/6 18/54/6 22/32/6
f 26/37/1 28/40/1 27/38/1
f 28/40/2 32/42/2 31/41/2
f 32/42/3 30/44/3 29/43/3
f 30/44/4 26/55/4 25/45/4
f 31/41/5 29/43/5 25/46/5
f 28/48/6 26/56/6 30/44/6
