# Blender 4.4.1
# www.blender.org
mtllib Refrigerator.mtl
o beveled_cuboid
v 1.039062 4.375000 1.039062
v 1.039062 4.375000 -1.039063
v -1.039062 4.375000 1.039062
v -1.039062 4.375000 -1.039063
v 1.039062 0.000000 1.039062
v 1.039062 -0.000000 -1.039062
v -1.039062 0.000000 1.039062
v -1.039062 -0.000000 -1.039062
v -1.093750 0.087500 1.039062
v -1.093750 4.287500 1.039062
v -1.093750 0.087500 -1.039062
v -1.093750 4.287500 -1.039063
v 1.093750 0.087500 1.039062
v 1.093750 4.287500 1.039062
v 1.093750 0.087500 -1.039062
v 1.093750 4.287500 -1.039063
v 1.039062 0.087500 -1.093750
v 1.039062 4.287500 -1.093750
v -1.039062 0.087500 -1.093750
v -1.039062 4.287500 -1.093750
v 1.039062 0.087500 1.093750
v 1.039062 4.287500 1.093750
v -1.039062 0.087500 1.093750
v -1.039062 4.287500 1.093750
v 1.093750 4.287500 -0.812500
v 1.093750 0.087500 -0.812500
v 1.039062 -0.000000 -0.812500
v -1.039062 -0.000000 -0.812500
v -1.093750 0.087500 -0.812500
v -1.093750 4.287500 -0.812500
v -1.039062 4.375000 -0.812500
v 1.039062 4.375000 -0.812500
v 1.093750 0.087500 -0.699219
v 1.093750 4.287500 -0.699219
v 1.039062 4.375000 -0.699219
v -1.039062 4.375000 -0.699219
v -1.093750 4.287500 -0.699219
v -1.093750 0.087500 -0.699219
v -1.039062 -0.000000 -0.699219
v 1.039062 -0.000000 -0.699219
v 1.028828 4.186695 -0.812500
v 1.028828 0.188305 -0.699219
v 1.028828 4.186695 -0.699219
v 1.028828 0.188305 -0.812500
v 0.953511 4.304665 -0.812500
v 0.953511 4.304665 -0.699219
v 0.953511 0.070335 -0.699219
v 0.953511 0.070335 -0.812500
v -0.953511 0.070335 -0.699219
v -0.953511 0.070335 -0.812500
v -1.028828 0.188305 -0.699219
v -1.028828 0.188305 -0.812500
v -1.028828 4.186695 -0.699219
v -1.028828 4.186695 -0.812500
v -0.953511 4.304665 -0.699219
v -0.953511 4.304665 -0.812500
v 1.039062 2.687500 -1.093750
v -1.039062 2.687500 -1.093750
v -1.093750 2.687500 -1.039063
v -1.028828 2.687500 -0.812500
v -1.028828 2.687500 -0.699219
v -1.093750 2.687500 -0.699219
v -1.093750 2.687500 1.039062
v -1.039062 2.687500 1.093750
v 1.039062 2.687500 1.093750
v 1.093750 2.687500 1.039062
v 1.093750 2.687500 -0.699219
v 1.028828 2.687500 -0.699219
v 1.028828 2.687500 -0.812500
v 1.093750 2.687500 -1.039063
v -1.028828 2.625402 -0.699219
v -1.028828 2.625402 -0.812500
v -1.093750 2.575000 -1.039063
v -1.039062 2.575000 -1.093750
v 1.039062 2.575000 -1.093750
v 1.093750 2.575000 -1.039063
v 1.028828 2.625402 -0.812500
v 1.028828 2.625402 -0.699219
v 1.093750 2.575000 -0.699219
v 1.093750 2.575000 1.039062
v 1.039062 2.575000 1.093750
v -1.039062 2.575000 1.093750
v -1.093750 2.575000 1.039062
v -1.093750 2.575000 -0.699219
v 0.976793 2.687500 -1.057743
v -0.976793 2.575000 -1.057743
v 0.976793 2.575000 -1.057743
v -0.976793 2.687500 -1.057743
v -1.058128 2.575000 -0.906730
v -1.058128 2.687500 -0.906730
v 1.058128 2.687500 -0.906730
v 1.058128 2.575000 -0.906730
v 1.062500 2.687500 -0.812500
v 1.062500 2.575000 -0.812500
v -1.062500 2.575000 -0.812500
v -1.062500 2.687500 -0.812500
vn -1.0000 -0.0000 -0.0000
vn -0.0000 1.0000 -0.0000
vn -0.0000 -1.0000 -0.0000
vn -0.0000 -0.0000 1.0000
vn -0.0000 -0.0000 -1.0000
vn -0.8429 0.5381 -0.0000
vn -0.0000 0.5300 0.8480
vn -0.0000 0.5300 -0.8480
vn -0.8429 -0.5381 -0.0000
vn -0.0000 -0.5300 0.8480
vn -0.0000 -0.5300 -0.8480
vn -0.8804 -0.0000 -0.4742
vn -0.7071 -0.0000 0.7071
vn 0.6468 -0.4042 0.6468
vn -0.6468 -0.4042 0.6468
vn -0.6468 -0.4042 -0.6468
vn 0.6468 0.4042 0.6468
vn -0.6468 0.4042 0.6468
vn 0.6468 0.4042 -0.6468
vn -0.6468 0.4042 -0.6468
vn 0.8804 -0.0000 -0.4742
vn 0.7071 -0.0000 0.7071
vn 0.6468 -0.4042 -0.6468
vn 0.8429 -0.5381 -0.0000
vn 0.8429 0.5381 -0.0000
vn 1.0000 -0.0000 -0.0000
vn 0.9989 -0.0000 -0.0463
vn 0.8480 -0.5300 -0.0000
vn -0.8480 -0.5300 -0.0000
vn -0.9989 -0.0000 -0.0463
vn -0.8480 0.5300 -0.0000
vn 0.8480 0.5300 -0.0000
vn -0.7071 -0.0000 -0.7071
vn -0.9816 -0.0080 0.1906
vn -0.9968 0.0077 0.0792
vn -0.9975 0.0099 0.0699
vn 0.9968 -0.0113 0.0792
vn 0.9813 -0.0270 0.1906
vn 0.9975 -0.0099 0.0699
vn 0.7071 -0.0000 -0.7071
vn -0.9972 0.0068 0.0748
vn -0.9807 0.0178 0.1948
vn -0.9975 0.0064 0.0698
vn 0.9808 0.0056 0.1948
vn 0.9972 -0.0054 0.0748
vn 0.9975 -0.0064 0.0698
vn -0.9786 -0.0093 0.2055
vn 0.9782 -0.0291 0.2055
vn -0.9785 0.0187 0.2054
vn 0.9787 0.0060 0.2054
vt 0.375366 0.506953
vt 0.382446 0.510834
vt 0.375366 0.510834
vt 0.144531 0.984375
vt 0.265625 0.992188
vt 0.144531 0.992188
vt 0.265625 0.984375
vt 0.144531 0.976562
vt 0.265625 0.976562
vt 0.001465 0.613082
vt 0.131348 0.620113
vt 0.001465 0.620113
vt 0.144531 0.968750
vt 0.382446 0.604534
vt 0.375366 0.613281
vt 0.375366 0.604534
vt 0.131348 0.726562
vt 0.001465 0.720113
vt 0.131348 0.720113
vt 0.384277 0.890625
vt 0.514160 0.884176
vt 0.514160 0.890625
vt 0.382446 0.345887
vt 0.375366 0.354634
vt 0.375366 0.345887
vt 0.131348 0.451164
vt 0.001465 0.457613
vt 0.001465 0.451164
vt 0.243652 0.560738
vt 0.373535 0.567187
vt 0.243652 0.567187
vt 0.040520 0.875781
vt 0.051240 0.882812
vt 0.040520 0.882812
vt 0.390625 0.500271
vt 0.395459 0.507302
vt 0.390625 0.507302
vt 0.403833 0.338823
vt 0.406250 0.344802
vt 0.401416 0.344802
vt 0.393042 0.338823
vt 0.395459 0.344802
vt 0.390625 0.344802
vt 0.075708 0.830740
vt 0.078125 0.836719
vt 0.073291 0.836719
vt 0.403833 0.613281
vt 0.401416 0.607302
vt 0.406250 0.607302
vt 0.393042 0.613281
vt 0.390625 0.607302
vt 0.395459 0.607302
vt 0.096167 0.992188
vt 0.093750 0.986208
vt 0.098584 0.986208
vt 0.091333 0.992188
vt 0.088916 0.986208
vt 0.116728 0.879687
vt 0.127449 0.886719
vt 0.116728 0.886719
vt 0.401416 0.500271
vt 0.406250 0.507302
vt 0.401416 0.507302
vt 0.080542 0.830740
vt 0.082959 0.836719
vt 0.383179 0.354634
vt 0.390259 0.345887
vt 0.390259 0.354634
vt 0.383179 0.613281
vt 0.390259 0.604534
vt 0.390259 0.613281
vt 0.383179 0.506953
vt 0.390259 0.510834
vt 0.383179 0.510834
vt 0.110833 0.879687
vt 0.110833 0.886719
vt 0.024902 0.836719
vt 0.039062 0.830270
vt 0.039062 0.836719
vt 0.511719 0.742188
vt 0.382812 0.726562
vt 0.511719 0.726562
vt 0.021973 0.830257
vt 0.007824 0.836731
vt 0.007812 0.830282
vt 0.051240 0.875781
vt 0.057136 0.882812
vt 0.068848 0.985738
vt 0.054688 0.992188
vt 0.054688 0.985738
vt 0.386719 0.753906
vt 0.515625 0.769531
vt 0.386719 0.769531
vt 0.040527 0.989280
vt 0.054670 0.982793
vt 0.054688 0.989243
vt 0.273804 0.886520
vt 0.382446 0.893551
vt 0.273804 0.893551
vt 0.382446 0.993551
vt 0.273804 1.000000
vt 0.273804 0.993551
vt 0.503906 0.722656
vt 0.375000 0.613281
vt 0.503906 0.613281
vt 0.133179 0.726562
vt 0.241821 0.720113
vt 0.241821 0.726562
vt 0.133179 0.613082
vt 0.241821 0.620113
vt 0.133179 0.620113
vt 0.133179 0.457613
vt 0.241821 0.451164
vt 0.241821 0.457613
vt 0.382812 0.890625
vt 0.511719 1.000000
vt 0.382812 1.000000
vt 0.382446 0.724602
vt 0.273804 0.731051
vt 0.273804 0.724602
vt 0.000000 0.894531
vt 0.004058 0.890650
vt 0.004058 0.894531
vt 0.269380 0.890650
vt 0.271484 0.894531
vt 0.269380 0.894531
vt 0.008765 0.995604
vt 0.000000 0.994531
vt 0.004058 0.988231
vt 0.264673 0.995604
vt 0.273438 0.994531
vt 0.270020 1.000000
vt 0.127954 0.995604
vt 0.003418 1.000000
vt 0.140137 1.000000
vt 0.145484 0.995604
vt 0.136719 0.994531
vt 0.133301 1.000000
vt 0.140777 0.988231
vt 0.132661 0.890650
vt 0.136719 0.894531
vt 0.132661 0.894531
vt 0.138672 0.894531
vt 0.140777 0.890650
vt 0.140777 0.894531
vt 0.127954 0.730959
vt 0.136719 0.732031
vt 0.132661 0.738332
vt 0.145484 0.730959
vt 0.140137 0.726562
vt 0.003418 0.726562
vt 0.133301 0.726562
vt 0.264673 0.730959
vt 0.270020 0.726562
vt 0.008765 0.730959
vt 0.000000 0.732031
vt 0.273438 0.732031
vt 0.269380 0.738332
vt 0.384277 0.784176
vt 0.384277 0.884176
vt 0.088916 0.886208
vt 0.054688 0.885738
vt 0.068715 0.985738
vt 0.132661 0.988231
vt 0.133179 0.720113
vt 0.383179 0.604534
vt 0.269380 0.988231
vt 0.040510 0.982831
vt 0.054538 0.882812
vt 0.054538 0.982794
vt 0.093750 0.886208
vt 0.382446 0.506953
vt 0.382446 0.354634
vt 0.140777 0.738332
vt 0.138672 0.887500
vt 0.021984 0.836707
vt 0.007956 0.992188
vt 0.007956 0.836731
vt 0.078125 0.992188
vt 0.373535 0.722656
vt 0.082959 0.992188
vt 0.039062 0.992188
vt 0.025035 0.836719
vt 0.271484 0.887500
vt 0.390259 0.506953
vt 0.004058 0.738332
vt 0.000000 0.887500
vt 0.382446 0.886520
vt 0.382446 0.731051
vt 0.406250 0.500271
vt 0.131348 0.613082
vt 0.131348 0.457613
vt 0.395459 0.500271
vt 0.241821 0.613082
vt 0.136719 0.887500
vt 0.512221 0.779000
vt 0.386230 0.781250
vt 0.390122 0.779000
vt 0.390122 0.744438
vt 0.516113 0.742188
vt 0.512221 0.744438
vt 0.382812 0.777832
vt 0.385039 0.769561
vt 0.382812 0.745605
vt 0.386230 0.742188
vt 0.519531 0.777832
vt 0.516113 0.781250
vt 0.519531 0.745605
vt 0.517305 0.753876
vt 0.517305 0.769561
vt 0.517578 0.763672
vt 0.517578 0.759766
vt 0.384766 0.763672
vt 0.385039 0.753876
vt 0.384766 0.759766
vt 0.265625 0.968750
vt 0.382446 0.613281
vt 0.001465 0.726562
vt 0.373535 0.560738
vt 0.127449 0.879687
vt 0.383179 0.345887
vt 0.024902 0.830270
vt 0.382812 0.742188
vt 0.057136 0.875781
vt 0.068848 0.992188
vt 0.515625 0.753906
vt 0.382446 1.000000
vt 0.375000 0.722656
vt 0.133179 0.451164
vt 0.511719 0.890625
vt 0.514160 0.784176
vt 0.068982 0.885738
vt 0.040243 0.882812
vt 0.098584 0.886208
vt 0.022251 0.992188
vt 0.073291 0.992188
vt 0.243652 0.722656
vt 0.024768 0.992188
s 1
usemtl m_448345eb-86b8-8b18-781f-109392657be0
f 72/1/1 61/2/1 60/3/1
f 55/4/2 45/5/2 56/6/2
f 47/7/3 50/8/3 48/9/3
f 82/10/4 65/11/4 64/12/4
f 87/13/5 88/9/5 85/8/5
f 53/14/6 56/15/6 54/16/6
f 1/17/7 24/18/7 22/19/7
f 2/20/8 20/21/8 4/22/8
f 49/23/9 52/24/9 50/25/9
f 5/26/10 23/27/10 7/28/10
f 6/29/11 19/30/11 17/31/11
f 86/32/12 90/33/12 88/34/12
f 83/35/13 64/36/13 63/37/13
f 5/38/14 13/39/14 21/40/14
f 7/41/15 23/42/15 9/43/15
f 8/44/16 11/45/16 19/46/16
f 1/47/17 22/48/17 14/49/17
f 3/50/18 10/51/18 24/52/18
f 2/53/19 16/54/19 18/55/19
f 4/56/20 20/57/20 12/54/20
f 92/58/21 85/59/21 91/60/21
f 81/61/22 66/62/22 65/63/22
f 6/64/23 17/65/23 15/45/23
f 42/66/24 48/67/24 44/68/24
f 46/69/25 41/70/25 45/71/25
f 78/72/26 69/73/26 68/74/26
f 94/75/27 91/60/27 93/76/27
f 26/77/28 6/78/28 15/79/28
f 27/80/3 8/81/3 6/82/3
f 28/83/29 11/84/29 8/85/29
f 89/86/30 96/87/30 90/33/30
f 30/88/31 4/89/31 12/90/31
f 31/91/2 2/92/2 4/93/2
f 32/94/32 16/95/32 2/96/32
f 80/97/26 67/98/26 66/99/26
f 34/100/32 1/101/32 14/102/32
f 35/103/2 3/104/2 1/105/2
f 36/106/31 10/107/31 3/108/31
f 84/109/1 63/110/1 62/111/1
f 38/112/29 7/113/29 9/114/29
f 39/115/3 5/116/3 7/117/3
f 40/118/28 13/119/28 5/120/28
f 67/121/5 78/122/5 68/123/5
f 77/124/4 93/125/4 69/126/4
f 46/127/5 34/128/5 43/129/5
f 45/130/4 25/131/4 32/132/4
f 55/133/5 35/134/5 46/127/5
f 45/130/4 31/135/4 56/136/4
f 55/133/5 37/137/5 36/138/5
f 56/136/4 30/137/4 54/139/4
f 71/140/5 62/141/5 61/142/5
f 96/143/4 72/144/4 60/145/4
f 49/146/5 38/147/5 51/148/5
f 50/149/4 29/147/4 28/150/4
f 49/146/5 40/151/5 39/152/5
f 48/153/4 28/150/4 27/154/4
f 47/155/5 33/156/5 40/151/5
f 48/153/4 26/157/4 44/158/4
f 57/159/5 20/21/5 18/160/5
f 58/161/33 12/54/33 20/57/33
f 59/162/34 30/163/35 12/90/36
f 96/143/4 54/139/4 30/137/4
f 60/3/1 53/14/1 54/16/1
f 53/164/5 62/141/5 37/137/5
f 62/111/1 10/107/1 37/165/1
f 63/37/13 24/52/13 10/51/13
f 64/12/4 22/19/4 24/18/4
f 65/63/22 14/49/22 22/48/22
f 66/99/26 34/100/26 14/102/26
f 67/121/5 43/129/5 34/128/5
f 68/74/26 41/70/26 43/166/26
f 41/167/4 93/125/4 25/131/4
f 25/168/37 70/169/38 16/170/39
f 70/171/40 18/55/40 16/54/40
f 71/172/1 52/24/1 51/173/1
f 52/174/4 95/175/4 29/147/4
f 29/176/41 73/177/42 11/178/43
f 73/179/33 19/46/33 11/45/33
f 74/180/5 17/31/5 19/30/5
f 75/181/40 15/45/40 17/65/40
f 76/182/44 26/183/45 15/79/46
f 94/184/4 44/158/4 26/157/4
f 77/185/26 42/66/26 44/68/26
f 42/186/5 79/187/5 33/156/5
f 79/188/26 13/119/26 33/189/26
f 80/190/22 21/40/22 13/39/22
f 81/191/4 23/27/4 21/192/4
f 82/193/13 9/43/13 23/42/13
f 83/194/1 38/112/1 9/114/1
f 84/195/5 51/148/5 38/147/5
f 87/196/2 74/197/2 86/198/2
f 88/199/3 57/200/3 85/201/3
f 86/198/2 73/202/2 89/203/2
f 88/199/3 59/204/3 58/205/3
f 87/196/2 76/206/2 75/207/2
f 85/201/3 70/208/3 91/209/3
f 92/210/2 94/211/2 76/206/2
f 93/212/3 91/209/3 70/208/3
f 95/213/2 89/203/2 73/202/2
f 90/214/3 96/215/3 59/204/3
f 72/1/1 71/172/1 61/2/1
f 55/4/2 46/7/2 45/5/2
f 47/7/3 49/4/3 50/8/3
f 82/10/4 81/191/4 65/11/4
f 87/13/5 86/216/5 88/9/5
f 53/14/6 55/217/6 56/15/6
f 1/17/7 3/218/7 24/18/7
f 2/20/8 18/160/8 20/21/8
f 49/23/9 51/173/9 52/24/9
f 5/26/10 21/192/10 23/27/10
f 6/29/11 8/219/11 19/30/11
f 86/32/12 89/86/12 90/33/12
f 83/35/13 82/193/13 64/36/13
f 92/58/21 87/220/21 85/59/21
f 81/61/22 80/190/22 66/62/22
f 42/66/24 47/221/24 48/67/24
f 46/69/25 43/166/25 41/70/25
f 78/72/26 77/185/26 69/73/26
f 94/75/27 92/58/27 91/60/27
f 26/77/28 27/222/28 6/78/28
f 27/80/3 28/223/3 8/81/3
f 28/83/29 29/176/29 11/84/29
f 89/86/30 95/224/30 96/87/30
f 30/88/31 31/225/31 4/89/31
f 31/91/2 32/226/2 2/92/2
f 32/94/32 25/168/32 16/95/32
f 80/97/26 79/188/26 67/98/26
f 34/100/32 35/227/32 1/101/32
f 35/103/2 36/228/2 3/104/2
f 36/106/31 37/165/31 10/107/31
f 84/109/1 83/194/1 63/110/1
f 38/112/29 39/229/29 7/113/29
f 39/115/3 40/230/3 5/116/3
f 40/118/28 33/189/28 13/119/28
f 67/121/5 79/187/5 78/122/5
f 77/124/4 94/184/4 93/125/4
f 46/127/5 35/134/5 34/128/5
f 45/130/4 41/167/4 25/131/4
f 55/133/5 36/138/5 35/134/5
f 45/130/4 32/132/4 31/135/4
f 55/133/5 53/164/5 37/137/5
f 56/136/4 31/135/4 30/137/4
f 71/140/5 84/195/5 62/141/5
f 96/143/4 95/175/4 72/144/4
f 49/146/5 39/152/5 38/147/5
f 50/149/4 52/174/4 29/147/4
f 49/146/5 47/155/5 40/151/5
f 48/153/4 50/149/4 28/150/4
f 47/155/5 42/186/5 33/156/5
f 48/153/4 27/154/4 26/157/4
f 57/159/5 58/231/5 20/21/5
f 58/161/33 59/171/33 12/54/33
f 59/162/34 96/232/47 30/163/35
f 96/143/4 60/145/4 54/139/4
f 60/3/1 61/2/1 53/14/1
f 53/164/5 61/142/5 62/141/5
f 62/111/1 63/110/1 10/107/1
f 63/37/13 64/36/13 24/52/13
f 64/12/4 65/11/4 22/19/4
f 65/63/22 66/62/22 14/49/22
f 66/99/26 67/98/26 34/100/26
f 67/121/5 68/123/5 43/129/5
f 68/74/26 69/73/26 41/70/26
f 41/167/4 69/126/4 93/125/4
f 25/168/37 93/233/48 70/169/38
f 70/171/40 57/234/40 18/55/40
f 71/172/1 72/1/1 52/24/1
f 52/174/4 72/144/4 95/175/4
f 29/176/41 95/235/49 73/177/42
f 73/179/33 74/236/33 19/46/33
f 74/180/5 75/237/5 17/31/5
f 75/181/40 76/179/40 15/45/40
f 76/182/44 94/238/50 26/183/45
f 94/184/4 77/124/4 44/158/4
f 77/185/26 78/72/26 42/66/26
f 42/186/5 78/122/5 79/187/5
f 79/188/26 80/97/26 13/119/26
f 80/190/22 81/61/22 21/40/22
f 81/191/4 82/10/4 23/27/4
f 82/193/13 83/35/13 9/43/13
f 83/194/1 84/109/1 38/112/1
f 84/195/5 71/140/5 51/148/5
f 87/196/2 75/207/2 74/197/2
f 88/199/3 58/205/3 57/200/3
f 86/198/2 74/197/2 73/202/2
f 88/199/3 90/214/3 59/204/3
f 87/196/2 92/210/2 76/206/2
f 85/201/3 57/200/3 70/208/3
o torus
v 0.797131 3.463300 -1.212211
v 0.764191 3.530896 -1.237440
v 0.698309 3.530896 -1.237440
v 0.665369 3.463300 -1.212211
v 0.698309 3.395704 -1.186981
v 0.764191 3.395704 -1.186981
v 0.797131 3.496074 -1.078011
v 0.764191 3.572185 -1.068374
v 0.698309 3.572185 -1.068374
v 0.665369 3.496074 -1.078011
v 0.698309 3.419964 -1.087648
v 0.764191 3.419964 -1.087648
v 0.797131 2.910176 -1.078011
v 0.764191 2.834065 -1.068374
v 0.698309 2.834065 -1.068374
v 0.665369 2.910176 -1.078011
v 0.698309 2.986286 -1.087648
v 0.764191 2.986286 -1.087648
v 0.797131 2.942950 -1.212211
v 0.764191 2.875354 -1.237440
v 0.698309 2.875354 -1.237440
v 0.665369 2.942950 -1.212211
v 0.698309 3.010546 -1.186981
v 0.764191 3.010546 -1.186981
vn 0.9086 0.4058 -0.0991
vn -0.0000 0.9714 -0.2372
vn -0.0000 0.9715 -0.2372
vn -0.9086 0.4058 -0.0991
vn -0.9086 -0.4058 0.0991
vn -0.0000 -0.9714 0.2373
vn -0.0000 -0.9714 0.2372
vn 0.9086 -0.4058 0.0991
vn 0.9086 -0.4058 -0.0991
vn -0.0000 -0.9714 -0.2372
vn -0.0000 -0.9715 -0.2372
vn -0.9086 -0.4058 -0.0991
vn -0.9086 0.4058 0.0991
vn -0.0000 0.9714 0.2373
vn 0.9086 0.4058 0.0991
vn 0.6081 -0.0000 -0.7939
vn 0.6080 -0.0000 -0.7939
vn -0.0000 -0.0000 -1.0000
vn -0.6080 -0.0000 -0.7939
vn -0.6081 -0.0000 -0.7939
vn -0.6081 -0.0000 0.7939
vn -0.0000 -0.0000 1.0000
vn 0.6081 -0.0000 0.7939
vn -0.0000 0.9714 0.2372
vt 0.121094 0.942248
vt 0.117188 0.951411
vt 0.117188 0.942777
vt 0.117188 0.898438
vt 0.113281 0.910156
vt 0.113281 0.898438
vt 0.118029 0.968750
vt 0.127193 0.964844
vt 0.128906 0.968750
vt 0.117188 0.929688
vt 0.124108 0.925781
vt 0.125822 0.929688
vt 0.125000 0.984375
vt 0.121094 0.992188
vt 0.121094 0.984375
vt 0.121094 0.894531
vt 0.117188 0.901452
vt 0.117188 0.895061
vt 0.118901 0.960938
vt 0.128065 0.957031
vt 0.127535 0.960938
vt 0.117188 0.886719
vt 0.113281 0.886719
vt 0.121094 0.931401
vt 0.117188 0.940565
vt 0.070312 0.875892
vt 0.066406 0.882812
vt 0.066406 0.874178
vt 0.121094 0.886719
vt 0.117188 0.894531
vt 0.090736 0.882812
vt 0.097656 0.878906
vt 0.097127 0.882812
vt 0.105469 0.908248
vt 0.101562 0.944994
vt 0.101562 0.912472
vt 0.109375 0.910156
vt 0.105469 0.949219
vt 0.105469 0.910156
vt 0.105469 0.955441
vt 0.101562 0.992188
vt 0.101562 0.951216
vt 0.113281 0.928734
vt 0.109375 0.957031
vt 0.109375 0.924509
vt 0.117188 0.933594
vt 0.113281 0.957031
vt 0.113281 0.933594
vt 0.113281 0.959666
vt 0.109375 0.987963
vt 0.109375 0.963890
vt 0.121094 0.953125
vt 0.117188 0.910156
vt 0.118558 0.964844
vt 0.117717 0.925781
vt 0.125000 0.992188
vt 0.121094 0.903165
vt 0.117188 0.957031
vt 0.121094 0.940035
vt 0.070312 0.882283
vt 0.089022 0.878906
vt 0.109375 0.949219
vt 0.105469 0.987963
vt 0.113281 0.952807
vt 0.113281 0.992188
s 1
usemtl m_448345eb-86b8-8b18-781f-109392657be0
f 98/239/51 103/240/51 97/241/51
f 99/242/52 104/243/52 98/244/53
f 99/245/54 106/246/54 105/247/54
f 100/248/55 107/249/55 106/250/55
f 102/251/56 107/252/56 101/253/57
f 97/254/58 108/255/58 102/256/58
f 109/257/59 116/258/59 115/259/59
f 111/260/60 116/244/61 110/261/60
f 112/262/62 117/263/62 111/248/62
f 113/264/63 118/265/63 112/266/63
f 114/267/64 119/268/64 113/260/64
f 114/269/65 115/270/65 120/271/65
f 116/272/66 97/273/67 115/274/66
f 117/275/68 98/276/68 116/277/68
f 118/278/69 99/279/70 117/280/69
f 119/281/71 100/282/71 118/283/71
f 120/284/72 101/285/72 119/286/72
f 115/287/73 102/288/73 120/289/73
f 98/239/51 104/290/51 103/240/51
f 99/242/52 105/291/52 104/243/52
f 99/245/54 100/292/54 106/246/54
f 100/248/55 101/293/55 107/249/55
f 102/251/56 108/294/56 107/252/56
f 97/254/58 103/295/58 108/255/58
f 109/257/59 110/296/59 116/258/59
f 111/260/60 117/242/61 116/244/61
f 112/262/62 118/297/62 117/263/62
f 113/264/63 119/298/63 118/265/63
f 114/267/64 120/254/74 119/268/64
f 114/269/65 109/299/65 115/270/65
f 116/272/66 98/276/67 97/273/67
f 117/275/68 99/300/68 98/276/68
f 118/278/69 100/301/70 99/279/70
f 119/281/71 101/302/71 100/282/71
f 120/284/72 102/296/72 101/285/72
f 115/287/73 97/303/73 102/288/73
o torus.001
v 0.797131 2.338300 -1.212211
v 0.764191 2.405896 -1.237440
v 0.698309 2.405896 -1.237440
v 0.665369 2.338300 -1.212211
v 0.698309 2.270704 -1.186981
v 0.764191 2.270704 -1.186981
v 0.797131 2.371074 -1.078011
v 0.764191 2.447185 -1.068374
v 0.698309 2.447185 -1.068374
v 0.665369 2.371074 -1.078011
v 0.698309 2.294964 -1.087648
v 0.764191 2.294964 -1.087648
v 0.797131 1.785176 -1.078011
v 0.764191 1.709065 -1.068374
v 0.698309 1.709065 -1.068374
v 0.665369 1.785176 -1.078011
v 0.698309 1.861286 -1.087648
v 0.764191 1.861286 -1.087648
v 0.797131 1.817950 -1.212211
v 0.764191 1.750354 -1.237440
v 0.698309 1.750354 -1.237440
v 0.665369 1.817950 -1.212211
v 0.698309 1.885545 -1.186981
v 0.764191 1.885545 -1.186981
vn 0.9086 0.4058 -0.0991
vn -0.0000 0.9714 -0.2372
vn -0.0000 0.9715 -0.2372
vn -0.9086 0.4058 -0.0991
vn -0.9086 -0.4058 0.0991
vn -0.0000 -0.9714 0.2373
vn -0.0000 -0.9714 0.2372
vn 0.9086 -0.4058 0.0991
vn 0.9086 -0.4058 -0.0991
vn -0.0000 -0.9715 -0.2372
vn -0.0000 -0.9714 -0.2372
vn -0.9086 -0.4058 -0.0991
vn -0.9086 0.4058 0.0991
vn -0.0000 0.9714 0.2372
vn 0.9086 0.4058 0.0991
vn 0.6081 -0.0000 -0.7939
vn 0.6080 -0.0000 -0.7939
vn -0.0000 -0.0000 -1.0000
vn -0.6080 -0.0000 -0.7939
vn -0.6081 -0.0000 -0.7939
vn -0.6081 -0.0000 0.7939
vn -0.0000 -0.0000 1.0000
vn 0.6081 -0.0000 0.7939
vt 0.062500 0.871935
vt 0.058594 0.881099
vt 0.058594 0.872465
vt 0.121094 0.980469
vt 0.117188 0.992188
vt 0.117188 0.980469
vt 0.118029 0.964844
vt 0.127193 0.960938
vt 0.128906 0.964844
vt 0.117188 0.925781
vt 0.124108 0.921875
vt 0.125822 0.925781
vt 0.125000 0.968750
vt 0.121094 0.976562
vt 0.121094 0.968750
vt 0.101562 0.871094
vt 0.097656 0.878014
vt 0.097656 0.871623
vt 0.118901 0.957031
vt 0.128065 0.953125
vt 0.127535 0.957031
vt 0.117188 0.968750
vt 0.066406 0.872807
vt 0.062500 0.881971
vt 0.062500 0.871094
vt 0.121094 0.914955
vt 0.117188 0.921875
vt 0.117188 0.913241
vt 0.125000 0.976562
vt 0.121094 0.984375
vt 0.121986 0.910156
vt 0.128906 0.906250
vt 0.128377 0.910156
vt 0.109375 0.951216
vt 0.105469 0.987963
vt 0.105469 0.955441
vt 0.109375 0.871094
vt 0.105469 0.910156
vt 0.105469 0.871094
vt 0.105469 0.869503
vt 0.101562 0.906250
vt 0.101562 0.865279
vt 0.113281 0.959666
vt 0.117188 0.987963
vt 0.113281 0.992188
vt 0.117188 0.910156
vt 0.113281 0.933594
vt 0.113281 0.910156
vt 0.113281 0.889353
vt 0.109375 0.917650
vt 0.109375 0.893578
vt 0.062500 0.882812
vt 0.121094 0.992188
vt 0.118558 0.960938
vt 0.117717 0.921875
vt 0.101562 0.879728
vt 0.117188 0.953125
vt 0.066406 0.881442
vt 0.121094 0.921345
vt 0.125000 0.984375
vt 0.120272 0.906250
vt 0.109375 0.992188
vt 0.109375 0.910156
vt 0.105469 0.902025
vt 0.117188 0.963890
vt 0.117188 0.933594
vt 0.113281 0.921875
s 1
usemtl m_448345eb-86b8-8b18-781f-109392657be0
f 122/304/75 127/305/75 121/306/75
f 123/307/76 128/308/76 122/309/77
f 123/310/78 130/311/78 129/312/78
f 124/313/79 131/314/79 130/315/79
f 126/316/80 131/317/80 125/318/81
f 121/319/82 132/320/82 126/321/82
f 133/322/83 140/323/83 139/324/83
f 135/318/84 140/309/84 134/325/85
f 136/326/86 141/327/86 135/328/86
f 137/329/87 142/330/87 136/331/87
f 138/332/88 143/333/88 137/317/88
f 138/334/89 139/335/89 144/336/89
f 140/337/90 121/338/91 139/339/90
f 141/340/92 122/341/92 140/342/92
f 142/343/93 123/344/94 141/345/93
f 142/346/95 125/347/95 124/348/95
f 144/349/96 125/350/96 143/351/96
f 139/352/97 126/353/97 144/354/97
f 122/304/75 128/355/75 127/305/75
f 123/307/76 129/356/76 128/308/76
f 123/310/78 124/357/78 130/311/78
f 124/313/79 125/358/79 131/314/79
f 126/316/80 132/332/80 131/317/80
f 121/319/82 127/359/82 132/320/82
f 133/322/83 134/360/83 140/323/83
f 135/318/84 141/307/84 140/309/84
f 136/326/86 142/361/86 141/327/86
f 137/329/87 143/362/87 142/330/87
f 138/332/88 144/363/88 143/333/88
f 138/334/89 133/364/89 139/335/89
f 140/337/90 122/365/91 121/338/91
f 141/340/92 123/366/92 122/341/92
f 142/343/93 124/367/94 123/344/94
f 142/346/95 143/368/95 125/347/95
f 144/349/96 126/369/96 125/350/96
f 139/352/97 121/370/97 126/353/97
